<svg xmlns="http://www.w3.org/2000/svg" viewBox="0 0 100.22 115.27">
  <defs>
    <style>
      .cls-1 {
        fill: #91ad8f;
      }
    </style>
  </defs>
  <g id="Layer_2" data-name="Layer 2">
    <g id="Amusic">
      <path id="A" class="cls-1" d="M94.68,102.63l-.46-3h0l-14.65-96L61.4,0,12.74,81.51h0C7.23,90.74,1.21,89.72,1.21,89.72L0,95.88l26.49,5.19,1.21-6.16c-6.62-1.29-5.07-6.64-3.78-9.38l11-20.12L67.3,71.76l1.46,23.48h0c.34,5.54-2.11,6.81-4.33,6.87l-3.28-.65-1.21,6.16L99,115.27l1.21-6.15C96.77,108.44,95.3,105.16,94.68,102.63Zm-55-45.95,24-44L66.7,62Z"/>
    </g>
  </g>
</svg>
