<svg xmlns="http://www.w3.org/2000/svg" viewBox="0 0 153.84 199.47">
  <defs>
    <style>
      .cls-1 {
        fill: #e37650;
      }
    </style>
  </defs>
  <g id="Layer_2" data-name="Layer 2">
    <g id="Jmusic">
      <path class="cls-1" d="M53,16.13C40.38,13.67,41.59,1.82,41.59,1.82L32.31,0,21.46,55.39l9.28,1.82s3.35-11.43,15.92-9L127.21,64l-15.27,78c-4.17,21.33-22.11,41.66-51.6,35.88C40.23,173.92,22.41,157.48,26,129.41c.29-1.56,1.72-7.72,6.64-6.76L34,116,1.31,109.57,0,116.26l.12,0c.88.18,6.86,1.7,5.34,9.47l.13,0c-2.54,18,1.19,34.46,10.94,47.74C25.86,186.23,40,195,56.36,198.2,87.8,204.35,124,188.39,132.28,146l15.27-78,3.67-18.73,2.62-13.38Z"/>
    </g>
  </g>
</svg>
