<?xml version="1.0" encoding="UTF-8"?>
<svg id="A-letter" xmlns="http://www.w3.org/2000/svg" viewBox="0 0 126.4 145.39">
  <defs>
    <style>
      .cls-1 {
        fill: #91ad8f;
      }
    </style>
  </defs>
  <path class="cls-1" d="M119.42,129.44l-.59-3.84h0L100.35,4.49,77.44,0,16.07,102.81h0c-6.95,11.64-14.55,10.35-14.55,10.35l-1.52,7.76,33.41,6.54,1.52-7.76c-8.35-1.63-6.39-8.37-4.76-11.84l13.83-25.38,40.88,8.01,1.84,29.62h0c.43,6.98-2.67,8.59-5.46,8.66l-4.14-.81-1.52,7.76,49.28,9.65,1.52-7.76c-4.35-.85-6.2-4.99-6.98-8.18ZM50,71.49L80.26,15.97l3.86,62.2-34.12-6.68Z"/>
</svg>