<?xml version="1.0" encoding="UTF-8"?>
<svg id="J-letter" xmlns="http://www.w3.org/2000/svg" viewBox="0 0 194.03 251.59">
  <defs>
    <style>
      .cls-1 {
        fill: #e37650;
      }
    </style>
  </defs>
  <path class="cls-1" d="M66.79,20.35c-15.86-3.11-14.34-18.05-14.34-18.05L40.75,0l-13.68,69.87,11.7,2.29s4.23-14.42,20.09-11.31l101.59,19.9-19.26,98.33c-5.27,26.9-27.89,52.54-65.09,45.26-25.36-4.97-47.84-25.71-43.3-61.1,.36-1.97,2.17-9.74,8.37-8.53l1.65-8.44L1.65,138.19l-1.65,8.44,.15,.03c1.11,.23,8.66,2.14,6.74,11.95l.17,.03c-3.21,22.75,1.51,43.47,13.8,60.21,11.77,16.03,29.61,27.08,50.23,31.12,39.65,7.77,85.28-12.37,95.76-65.88l19.26-98.33,4.63-23.63,3.31-16.88L66.79,20.35Z"/>
</svg>