<?xml version="1.0" encoding="UTF-8"?>
<svg id="tunes" xmlns="http://www.w3.org/2000/svg" viewBox="0 0 374.21 320.03">
  <defs>
    <style>
      .cls-1 {
        fill: #fee400;
      }

      .cls-2 {
        fill: #fff;
      }

      .cls-3 {
        fill: #f2be51;
      }

      .cls-4 {
        fill: #91ad8f;
      }

      .cls-5 {
        fill: #8fb7b8;
      }
    </style>
  </defs>
  <g id="tunes-2" data-name="tunes">
    <g id="stars">
      <polygon id="yellow-star-6" class="cls-1" points="122.81 175.5 116.41 176 111.81 180.4 109.41 174.5 103.81 171.5 108.61 167.4 109.81 161.1 115.21 164.4 121.51 163.6 120.01 169.8 122.81 175.5"/>
      <polygon id="yellow-star-5" class="cls-1" points="209.11 191.5 204.51 189.8 200.01 191.4 200.21 186.6 197.31 182.8 201.91 181.5 204.71 177.6 207.31 181.6 211.91 182.9 208.91 186.7 209.11 191.5"/>
      <polygon id="yellow-star-4" class="cls-1" points="155.33 112.9 158.43 115.7 162.33 114.2 160.63 118.1 163.23 121.4 159.03 121 156.73 124.4 155.83 120.4 151.83 119.2 155.43 117.1 155.33 112.9"/>
      <polygon id="yellow-star-3" class="cls-1" points="64.53 34.6 68.53 40 75.13 39.2 71.23 44.6 74.13 50.7 67.73 48.6 62.83 53.2 62.83 46.5 56.93 43.3 63.33 41.2 64.53 34.6"/>
      <g id="yellow-star-2">
        <g>
          <path class="cls-1" d="M102.93,59.7c-.5,.1-.9-.2-1-.6l-1.5-6.6c-.1-.5,.2-.9,.6-1s.9,.2,1,.6l1.5,6.6c.1,.4-.1,.9-.6,1Z"/>
          <path class="cls-1" d="M105.53,71.2c-.5,.1-.9-.2-1-.6l-1.5-6.6c-.1-.5,.2-.9,.6-1s.9,.2,1,.6l1.5,6.6c.2,.5-.1,.9-.6,1Z"/>
        </g>
        <g>
          <path class="cls-1" d="M112.53,60.1l-6.6,1.5c-.5,.1-.9-.2-1-.6s.2-.9,.6-1l6.6-1.5c.5-.1,.9,.2,1,.6s-.1,.9-.6,1Z"/>
          <path class="cls-1" d="M101.03,62.7l-6.6,1.5c-.5,.1-.9-.2-1-.6s.2-.9,.6-1l6.6-1.5c.5-.1,.9,.2,1,.6s-.1,.9-.6,1Z"/>
        </g>
      </g>
      <g id="yellow-star-1">
        <g>
          <path class="cls-1" d="M148.51,194.4c-.2,0-.4,0-.6-.1l-4.7-3c-.4-.2-.5-.8-.3-1.2,.2-.4,.8-.5,1.2-.3l4.7,3c.4,.2,.5,.8,.3,1.2-.2,.2-.4,.4-.6,.4h0Z"/>
          <path class="cls-1" d="M156.71,199.6c-.2,0-.4,0-.6-.1l-4.7-3c-.4-.2-.5-.8-.3-1.2,.2-.4,.8-.5,1.2-.3l4.7,3c.4,.2,.5,.8,.3,1.2-.2,.2-.4,.3-.6,.4h0Z"/>
        </g>
        <g>
          <path class="cls-1" d="M151.41,193.8c-.2,0-.4,0-.6-.1-.4-.2-.5-.8-.3-1.2l3-4.7c.2-.4,.8-.5,1.2-.3s.5,.8,.3,1.2l-3,4.7c-.2,.2-.4,.3-.6,.4h0Z"/>
          <path class="cls-1" d="M146.21,202c-.2,0-.4,0-.6-.1-.4-.2-.5-.8-.3-1.2l3-4.7c.2-.4,.8-.5,1.2-.3s.5,.8,.3,1.2l-3,4.7c-.2,.2-.4,.3-.6,.4h0Z"/>
        </g>
      </g>
      <g id="white-star">
        <g>
          <path class="cls-2" d="M37.31,117.4c-.2,.1-.4,0-.6-.1l-4.7-3c-.4-.2-.5-.8-.3-1.2s.8-.5,1.2-.3l4.7,3c.4,.2,.5,.8,.3,1.2-.2,.2-.4,.4-.6,.4h0Z"/>
          <path class="cls-2" d="M45.51,122.6c-.2,.1-.4,0-.6-.1l-4.7-3c-.4-.2-.5-.8-.3-1.2s.8-.5,1.2-.3l4.7,3c.4,.2,.5,.8,.3,1.2-.2,.2-.4,.4-.6,.4h0Z"/>
        </g>
        <g>
          <path class="cls-2" d="M40.11,116.8c-.2,.1-.4,0-.6-.1-.4-.2-.5-.8-.3-1.2l3-4.7c.2-.4,.8-.5,1.2-.3s.5,.8,.3,1.2l-3,4.7c-.1,.2-.3,.3-.6,.4h0Z"/>
          <path class="cls-2" d="M35.01,125c-.2,.1-.4,0-.6-.1-.4-.2-.5-.8-.3-1.2l3-4.7c.2-.4,.8-.5,1.2-.3s.5,.8,.3,1.2l-3,4.7c-.2,.2-.4,.4-.6,.4h0Z"/>
        </g>
      </g>
    </g>
    <g id="orange-tune-4">
      <path class="cls-3" d="M313.91,178.6l.6-15.8h0l.1-3.5-14.3-.6-.3,7,12.8,.5-.3,8.9c-.8-.8-1.9-1.3-3.1-1.3-2.6-.1-4.8,1.9-4.8,4.5-.1,2.6,1.9,4.8,4.5,4.9,2.6-.1,4.7-2.1,4.8-4.6h0Z"/>
      <path class="cls-3" d="M298.51,174.8c-.8-1-2-1.6-3.4-1.7-2.6-.1-4.8,1.9-4.8,4.5-.1,2.6,1.9,4.8,4.5,4.9s4.8-1.9,4.8-4.5l.6-16.2,.1-3.1h-1.2l-.6,16.1h0Z"/>
    </g>
    <g id="orange-tune-3">
      <path class="cls-3" d="M356.11,172.1l.6-15.8h0l.1-3.5-14.3-.6-.3,7,12.8,.5-.3,8.9c-.8-.8-1.9-1.3-3.1-1.3-2.6-.1-4.8,1.9-4.8,4.5-.1,2.6,1.9,4.8,4.5,4.9,2.5,0,4.7-2,4.8-4.6h0Z"/>
      <path class="cls-3" d="M340.71,168.4c-.8-1-2-1.6-3.4-1.7-2.6-.1-4.8,1.9-4.8,4.5-.1,2.6,1.9,4.8,4.5,4.9s4.8-1.9,4.8-4.5l.6-16.2,.1-3.1h-1.2l-.6,16.1h0Z"/>
    </g>
    <g id="orange-tune-2">
      <path class="cls-3" d="M151.31,259l.6-15.8h0l.1-3.5-14.3-.6-.3,7,12.8,.5-.3,8.9c-.8-.8-1.9-1.3-3.1-1.3-2.6-.1-4.8,1.9-4.8,4.5-.1,2.6,1.9,4.8,4.5,4.9,2.5,0,4.7-2,4.8-4.6h0Z"/>
      <path class="cls-3" d="M135.81,255.3c-.8-1-2-1.6-3.4-1.7-2.6-.1-4.8,1.9-4.8,4.5-.1,2.6,1.9,4.8,4.5,4.9s4.8-1.9,4.8-4.5l.6-16.2,.1-3.1h-1.2l-.6,16.1h0Z"/>
    </g>
    <g id="orange-tune-1">
      <path class="cls-3" d="M114.11,252.8l-14.7-14.3h0l-3.2-3.1-12.9,13.2,6.5,6.3,11.5-11.8,8.2,8c-1.4,.1-2.8,.7-3.9,1.8-2.3,2.4-2.3,6.2,.1,8.5s6.2,2.3,8.5-.1c2.4-2.4,2.3-6.2-.1-8.5h0Z"/>
      <path class="cls-3" d="M97.21,264.3c-1.6,0-3.3,.5-4.5,1.8-2.3,2.4-2.3,6.2,.1,8.5s6.2,2.3,8.5-.1,2.3-6.2-.1-8.5l-15-14.6-2.9-2.8-1.1,1.1,15,14.6h0Z"/>
    </g>
    <g id="green-tune-7">
      <path class="cls-5" d="M226.01,236.8c-2.3,1.4-5.2,.7-6.7-1.5-1.4-2.3-.7-5.2,1.5-6.6,2.3-1.4,5.2-.7,6.7,1.5s.7,5.2-1.5,6.6Z"/>
      <rect class="cls-5" x="224.35" y="230.97" width="16.4" height="1.6" transform="translate(-87.37 157.95) rotate(-31.91)"/>
      <g>
        <path class="cls-5" d="M218.11,224.2c-2.3,1.4-5.2,.7-6.7-1.5-1.4-2.3-.7-5.2,1.5-6.6,2.3-1.4,5.2-.7,6.7,1.5s.8,5.2-1.5,6.6Z"/>
        <rect class="cls-5" x="232.32" y="214.41" width="7.2" height="14.8" transform="translate(-81.6 158.23) rotate(-31.91)"/>
        <polygon class="cls-5" points="232.41 215.3 218.11 224.2 217.41 223.1 234.41 212.6 235.11 213.6 232.41 215.3"/>
      </g>
    </g>
    <g id="green-tune-6">
      <path class="cls-5" d="M357.21,141.3c-2.3,1.4-5.2,.7-6.7-1.5-1.4-2.3-.7-5.2,1.5-6.6,2.3-1.4,5.2-.7,6.7,1.5s.8,5.2-1.5,6.6Z"/>
      <rect class="cls-5" x="355.53" y="135.4" width="16.4" height="1.6" transform="translate(-17.03 212.84) rotate(-31.91)"/>
      <g>
        <path class="cls-5" d="M349.41,128.7c-2.3,1.4-5.2,.7-6.7-1.5-1.4-2.3-.7-5.2,1.5-6.6,2.3-1.4,5.2-.7,6.7,1.6,1.4,2.1,.7,5.1-1.5,6.5h0Z"/>
        <rect class="cls-5" x="363.64" y="118.88" width="7.2" height="14.8" transform="translate(-11.25 213.2) rotate(-31.91)"/>
        <polygon class="cls-5" points="363.61 119.8 349.41 128.7 348.71 127.6 365.71 117 366.31 118.1 363.61 119.8"/>
      </g>
    </g>
    <g id="green-tune-5">
      <path class="cls-5" d="M290.51,301.4c-2.3,1.4-5.2,.7-6.7-1.5-1.4-2.3-.7-5.2,1.5-6.6,2.3-1.4,5.2-.7,6.7,1.5s.8,5.1-1.5,6.6Z"/>
      <rect class="cls-5" x="288.83" y="295.51" width="16.4" height="1.6" transform="translate(-111.74 201.79) rotate(-31.91)"/>
      <g>
        <path class="cls-5" d="M282.71,288.8c-2.3,1.4-5.2,.7-6.7-1.5-1.4-2.3-.7-5.2,1.5-6.6,2.3-1.4,5.2-.7,6.7,1.5,1.4,2.2,.7,5.2-1.5,6.6Z"/>
        <rect class="cls-5" x="296.95" y="278.98" width="7.2" height="14.8" transform="translate(-105.96 202.14) rotate(-31.91)"/>
        <polygon class="cls-5" points="296.91 279.9 282.71 288.8 282.01 287.7 299.01 277.1 299.61 278.2 296.91 279.9"/>
      </g>
    </g>
    <g id="green-tune-4">
      <path class="cls-5" d="M84.81,200.2c-2.3,1.4-5.2,.7-6.7-1.5-1.4-2.3-.7-5.2,1.5-6.6,2.3-1.4,5.2-.7,6.7,1.5s.8,5.2-1.5,6.6Z"/>
      <rect class="cls-5" x="83.14" y="194.41" width="16.4" height="1.6" transform="translate(-89.38 77.78) rotate(-31.91)"/>
      <g>
        <path class="cls-5" d="M77.01,187.6c-2.3,1.4-5.2,.7-6.7-1.5s-.7-5.2,1.5-6.6c2.3-1.4,5.2-.7,6.7,1.5,1.4,2.3,.7,5.2-1.5,6.6Z"/>
        <rect class="cls-5" x="91.2" y="177.79" width="7.2" height="14.8" transform="translate(-83.56 78.1) rotate(-31.91)"/>
        <polygon class="cls-5" points="91.21 178.8 77.01 187.6 76.31 186.6 93.31 176 93.91 177.1 91.21 178.8"/>
      </g>
    </g>
    <g id="green-tune-3">
      <path class="cls-5" d="M263.41,134.4c-2.3,1.4-5.2,.7-6.7-1.5-1.4-2.3-.7-5.2,1.5-6.6,2.3-1.4,5.2-.7,6.7,1.5,1.5,2.2,.8,5.2-1.5,6.6Z"/>
      <rect class="cls-5" x="261.71" y="128.5" width="16.4" height="1.6" transform="translate(-27.56 162.21) rotate(-31.91)"/>
      <g>
        <path class="cls-5" d="M255.51,121.8c-2.3,1.4-5.2,.7-6.7-1.6s-.7-5.2,1.5-6.6c2.3-1.4,5.2-.7,6.7,1.6,1.5,2.2,.8,5.2-1.5,6.6Z"/>
        <rect class="cls-5" x="269.74" y="112.03" width="7.2" height="14.8" transform="translate(-21.82 162.53) rotate(-31.91)"/>
        <polygon class="cls-5" points="269.81 112.9 255.51 121.8 254.91 120.7 271.91 110.2 272.51 111.2 269.81 112.9"/>
      </g>
    </g>
    <path id="green-tune-2" class="cls-5" d="M183.11,108.8l.3,1.2,15.3-4.1-3-11.1-15.3,4.1-1.9,.5,6.9,25.6c-1.7-1.1-3.9-1.5-6.1-.9-4.1,1.1-6.5,5.3-5.4,9.3,1.1,4.1,5.3,6.5,9.3,5.4,4.1-1.1,6.5-5.3,5.4-9.4l-5.5-20.6h0Z"/>
    <g id="green-tune-1">
      <rect class="cls-4" x="20.64" y="195.99" width="7.5" height="10.4" transform="translate(-132.96 73.46) rotate(-44.02)"/>
      <path class="cls-4" d="M10.01,206c.1-1.4-.4-2.8-1.4-3.8-1.9-2-5.1-2-7.1-.1s-2,5.1-.1,7.1,5.1,2,7.1,.1l12.5-12.1,2.4-2.3-.9-.9-12.5,12h0Z"/>
    </g>
    <path class="cls-1" d="M238.11,301.8l-.2,2.1-.2,2.1-.9,7.4c-.3-.1-.5-.2-.8-.2-1.4-.2-2.7,.8-2.9,2.3s.8,2.7,2.3,2.9c1.4,.2,2.7-.8,2.9-2.3l1.2-9.8,10.7,1.3-.9,7.4c-.3-.1-.5-.2-.8-.2-1.4-.2-2.7,.8-2.9,2.3s.8,2.7,2.3,2.9c1.4,.2,2.7-.8,2.9-2.3l1.2-9.8,.2-2.1,.2-2.1-14.3-1.9h0Z"/>
    <path class="cls-2" d="M183.51,297.2l-1.1,1.2-1.1,1.2-3.7,4.2c-.1-.2-.2-.4-.4-.5-.8-.7-2-.6-2.7,.2-.7,.8-.6,2,.2,2.7s2,.6,2.7-.2l4.9-5.6,6.1,5.3-3.7,4.2c-.1-.2-.2-.4-.4-.5-.8-.7-2-.6-2.7,.2-.7,.8-.6,2,.2,2.7s2,.6,2.7-.2l4.9-5.6,1.1-1.2,1.1-1.2-8.1-6.9h0Z"/>
    <path class="cls-1" d="M179.11,291.2l-.7,2.2-2.9,9.7c-.2-.2-.5-.3-.8-.4-1.4-.4-3,.4-3.4,1.8s.4,3,1.8,3.4,3-.4,3.4-1.8l3.5-11.8c2.6,.5,3.1,3.8,3.1,3.8,1.5-4.8-4-6.9-4-6.9h0Z"/>
  </g>
</svg>