<?xml version="1.0" encoding="utf-8"?>
<!-- Generator: Adobe Illustrator 26.3.1, SVG Export Plug-In . SVG Version: 6.00 Build 0)  -->
<svg version="1.1" id="Layer_1" xmlns="http://www.w3.org/2000/svg" xmlns:xlink="http://www.w3.org/1999/xlink" x="0px" y="0px"
	 viewBox="0 0 1280 1024" style="enable-background:new 0 0 1280 1024;" xml:space="preserve">
<style type="text/css">
	.st0{fill:#3B0986;}
	.st1{fill:#000B39;}
	.st2{fill:#AEC3CC;}
	.st3{fill:#CEE6F0;}
	.st4{fill:#674B9D;}
	.st5{fill:#FF6600;}
	.st6{fill:#FFC404;}
	.st7{fill:#F7941D;}
	.st8{fill:#FEE400;}
	.st9{fill:#FFC303;}
	.st10{fill:#FDF38F;}
	.st11{fill:#FFFFFF;}
	.st12{fill:#F2BE51;}
	.st13{fill:#8FB7B8;}
	.st14{fill:#91AD8F;}
	.st15{fill:#A3CEBB;}
	.st16{fill:#EA5761;}
	.st17{fill:#422752;}
	.st18{fill:#FEC957;}
	.st19{fill:#B89D6D;}
	.st20{fill:#E37650;}
</style>
<g id="Background">
	<rect x="-2.5" class="st0" width="1281.4" height="1025"/>
	<path class="st1" d="M1278.9,0v1025H-2.5v-59.1c47.2,10,108.1,16.2,186.4,16.2c382.1,0,226-259,466-326.1s165.4,188.2,328.5-13.9
		c163.1-202.2-58.2-388.6-144.5-530.2c-27-44.3-29.3-81.6-19.7-111.8L1278.9,0L1278.9,0z"/>
	<g>
		<path class="st2" d="M1228.3,55.9c0,75.1-76.1,136.1-170.1,136.1c-55.3,0-104.5-21.1-135.5-53.9c-21.7-22.8-34.5-51.3-34.5-82.2
			c0-19.9,5.4-38.9,15-55.9h310.2C1223,17.1,1228.4,36,1228.3,55.9L1228.3,55.9z"/>
		<path class="st3" d="M1142.2,29.8c0,66.9-67.8,121.1-151.4,121.1c-24.4,0-47.5-4.6-68-12.9c-16.8-17.7-28.3-38.7-32.6-61.7
			c-1.3-6.7-1.9-13.5-1.9-20.5c0-5.7,0.4-11.3,1.3-16.8c2.1-13.8,6.8-27,13.7-39.2h234.3C1140.5,9.5,1142.2,19.5,1142.2,29.8
			L1142.2,29.8z"/>
		<ellipse class="st2" cx="932.5" cy="98.8" rx="16.3" ry="13.1"/>
		<ellipse class="st2" cx="988.4" cy="132.3" rx="28" ry="22.4"/>
		<ellipse class="st2" cx="993" cy="70.8" rx="14" ry="11.2"/>
		<ellipse class="st2" cx="1115.3" cy="58.7" rx="33.8" ry="27"/>
		<ellipse class="st2" cx="1060.6" cy="104.4" rx="23.3" ry="18.6"/>
		<ellipse class="st2" cx="1031.5" cy="36.3" rx="19.8" ry="15.8"/>
		<ellipse class="st2" cx="937.1" cy="39.1" rx="9.3" ry="7.5"/>
		<ellipse class="st2" cx="1076.9" cy="16.8" rx="4.7" ry="3.7"/>
		<ellipse class="st2" cx="1002.3" cy="9.3" rx="4.7" ry="3.7"/>
		<ellipse class="st2" cx="1037.3" cy="76.4" rx="4.7" ry="3.7"/>
		<ellipse class="st2" cx="953.4" cy="67.1" rx="4.7" ry="3.7"/>
		<path class="st2" d="M913.8,57.8c0,10.3-10.4,18.6-23.3,18.6h-0.4c-1.3-6.7-1.9-13.5-1.9-20.5c0-5.7,0.4-11.3,1.3-16.8
			c0.3,0,0.7,0,1,0C903.4,39.1,913.8,47.5,913.8,57.8L913.8,57.8z"/>
	</g>
	<path class="st3" d="M432,1023.7H-2.5V952c7.8-4.2,16.8-7,26.8-8c24.4-2.3,47.2,7.3,59.1,23.2c4.1-1.9,8.7-3.2,13.7-3.7
		c18.4-1.8,35.2,7.9,39.3,22c4.1-4.7,10.6-8.1,18.3-8.8c14.2-1.4,27.2,6.8,28.9,18.2c0.4,2.7,0.2,5.2-0.6,7.6L432,1023.7L432,1023.7
		z"/>
	<path class="st4" d="M807.1,681.2l-189.4,54.2c0,0-66.9-48.6-129.8-26.3c-62.9,22.4-83.9,61.5-135.1,48.5
		c-51.3-13-48.9-78.3-114.2-82c-65.2-3.7-74.6,80.1-142.1,59.6c-40.2-12.2-63.9-65.9-99-101.5V0h557.8c8.2,20.6,10.1,49.6-11.5,86.7
		C497.2,166.8,620.7,148.2,644,206s-32.6,91.3-4.7,137.9s58.2-5.6,109.5,39.1C800.1,427.7,807.1,681.2,807.1,681.2z"/>
	<path class="st3" d="M853.8,543.8h320.4v-71.7c-7.8-4.2-16.8-7-26.8-8c-24.4-2.3-47.2,7.3-59.1,23.2c-4.1-1.9-8.7-3.2-13.7-3.6
		c-18.4-1.8-35.2,7.9-39.3,22c-4.1-4.7-10.6-8.1-18.3-8.8c-14.2-1.4-27.2,6.8-28.9,18.2c-0.4,2.7-0.2,5.2,0.6,7.6L853.8,543.8
		L853.8,543.8z"/>
	<path class="st3" d="M957.6,1024H1278v-71.7c-7.8-4.2-16.8-7-26.8-8c-24.4-2.3-47.2,7.3-59.1,23.2c-4.1-1.9-8.7-3.2-13.7-3.7
		c-18.4-1.8-35.2,7.9-39.3,22c-4.1-4.7-10.6-8.1-18.3-8.8c-14.2-1.4-27.2,6.8-28.9,18.2c-0.4,2.7-0.2,5.2,0.6,7.6L957.6,1024
		L957.6,1024z"/>
</g>
<g id="sax">
	<polygon class="st5" points="1281.4,85.4 1281.4,104 1221.4,114 1218.4,95.9 	"/>
	<polygon class="st5" points="1281.4,176.7 1281.4,195.3 1235.5,202.9 1232.5,184.8 	"/>
	<path class="st6" d="M1247.6,128.4c3.7,24.5,11.3,57.9,33.9,176.5v393.9c-144.9,151.2-320,30.4-340.2-45.2
		c-14.4-53.8-48.5-71-68.8-76.5c-1.3-0.3-2.6-0.7-3.8-0.9c-0.4-0.1-0.8-0.2-1.2-0.3c-1.5-0.3-3-0.6-4.2-0.8c-1.1-0.2-2-0.3-2.8-0.4
		c-0.2,0-0.3,0-0.4,0c-0.2,0-0.3,0-0.5-0.1c-1.9-0.2-3-0.2-3-0.2l95.2-234.5l8.1-20l12.5-30.7c4.6,3.2,9,6.6,13.4,10.1
		c37.2,29.5,67.1,66.3,88.4,107.6c23.8,46.1,36.6,97.8,36.6,151.2V576c0,1.4,0.1,2.9,0.3,4.2c2.1,16.7,16.3,29.6,33.6,29.6
		c0.9,0,1.9,0,2.9-0.1c31.8-2.1,55.1-30.9,51.5-62.5l-1.1-10.1l-45-397.4c-4.2-63.5,25.9-140.1,68.7-139.8h59.8v11
		C1263,26.6,1237.3,61.1,1247.6,128.4L1247.6,128.4z"/>
	<path class="st7" d="M1263.1,648l-125.6,50.8c0,0-57.9-19.8-57.9-22.6s-19.8-66.3-19.8-66.3l51.1-29.6
		c2.1,16.7,16.3,29.6,33.6,29.6c0.9,0,1.9,0,2.9-0.1c31.8-2.1,55.1-30.9,51.5-62.5l-1.1-10.1c9.7-10,20.1-23.2,30.7-40.2
		C1281.4,412.2,1263.1,648,1263.1,648L1263.1,648z"/>
	<path class="st8" d="M1247.6,128.4c3.7,24.5,11.3,57.9,33.9,176.5v393.9c-129.9,135.5-284.1,52.5-329.2-20.6
		c-5.2-8.4-9-16.7-11-24.5c-14.4-53.8-48.5-71-68.8-76.5c-9.5-2.6-16-2.6-16-2.6l88.9-235.8c6,0.7,13.2,3.3,21.2,7.6
		c55.8,29.9,149.7,141.3,143.9,257v17.8c0,3.5,1.7,7.6,4.6,12c18.9,29.4,55.3,28.1,86.4,12.1c24.8-12.8,38.9-25.5,40.3-56.6
		l-59.3-408C1176.4,87,1206.2,31.3,1234.6,0h46.7v11C1262.9,26.6,1237.3,61.1,1247.6,128.4L1247.6,128.4z"/>
	<path class="st5" d="M985.6,299.5l-19,46.9c-5.4-2.9-10.4-5-15-6.3l8.1-20l12.5-30.7C976.8,292.6,981.3,296,985.6,299.5
		L985.6,299.5z"/>
	<path class="st7" d="M966.7,346.4l-55.5,137.4l-38.7,93.3c-9.5-2.6-16-2.6-16-2.6l88.9-235.8C951.4,339.5,958.7,342.1,966.7,346.4
		L966.7,346.4z"/>
	<g>
		<polygon class="st7" points="1166.4,203 1128.9,210.1 1128.9,178.8 1166.4,183 		"/>
		<ellipse class="st5" cx="1125.1" cy="190.9" rx="11.6" ry="30.7"/>
		<polygon class="st7" points="1173.9,265.5 1137.6,271.7 1137.6,244.2 1173.9,248 		"/>
		<ellipse class="st5" cx="1133.9" cy="258" rx="11.2" ry="30"/>
		<polygon class="st7" points="1185.2,331.8 1148.9,338.1 1148.9,310.6 1185.2,314.3 		"/>
		<ellipse class="st5" cx="1145.2" cy="324.3" rx="11.2" ry="30"/>
		<polygon class="st7" points="1192.2,402.4 1156,408.7 1156,381.2 1192.2,384.9 		"/>
		<ellipse class="st5" cx="1152.2" cy="394.9" rx="11.2" ry="30"/>
		<polygon class="st7" points="1203.5,474.4 1167.2,480.7 1167.2,453.2 1203.5,456.9 		"/>
		<ellipse class="st5" cx="1163.5" cy="466.9" rx="11.2" ry="30"/>
	</g>
	<path class="st9" d="M895.6,478.1l-40.8,98.3c-3.9,9.4-14.2,14.3-24,11.4l0,0c-11.2-3.3-17.2-15.6-12.8-26.5l119.4-294.7
		c4.3-10.7,16.7-15.6,27.2-10.8l0,0c9.8,4.5,14.3,15.9,10.3,25.9L895.6,478.1z"/>
	<path class="st10" d="M1281.4,447v251.8c-129.9,135.5-284.1,52.5-329.2-20.6l0.2-0.2c21.3-17.1,52.3-12.7,68.7,9.2
		c21,28.1,55.8,46.6,94.4,47.6c57.9,1.4,157.4-67.1,150.1-129.9c-6.1-52.2-44.7-313.9-57.6-401.4c-1.8-12.5,10.7-22.1,22.3-17.1l0,0
		c5,2.2,8.6,6.7,9.5,12.1L1281.4,447L1281.4,447z"/>
	<path class="st10" d="M982.1,557.6c0,0-57.9,11.3-50.8,43.8c7.1,32.5,31.1,52.2,60.7,43.8C1021.7,636.7,1017.4,549.1,982.1,557.6
		L982.1,557.6z"/>
</g>
<g id="Jazz-word">
	<path class="st11" d="M471,504.8c0,0-3.6,7.9-27.1,3.3l-105.7-20.7L505.8,357l3.6-18.5l-109.1-21.4c-8.3-1.6-6.5-16.6-6.5-16.6
		l-7-1.4l-9.4,48.1l7,1.4c0,0,3.9-14.6,12.3-13l96,18.8L321.5,484.2l-10,51l122.4,24c23.5,4.6,23.9,13.3,23.9,13.3l11.3,2.2
		l13.2-67.6L471,504.8L471,504.8z"/>
	<path class="st11" d="M620,478c-1.6,8-11.8,9.4-11.8,9.4L534.6,473L637,407.5l4.7-24l-77.9-15.3c-10.3-2-8.7-11.3-8.7-11.3l-7-1.4
		l-8.3,42.5l7,1.4c0,0,2-9.2,12.3-7.2l58.3,11.4l-113.5,63.2l-8.8,45.1l104.3,20.4c0,0,8.9,5.1,7.4,13.2l11.3,2.2l13.2-67.6L620,478
		L620,478z"/>
	<path class="st11" d="M346.3,443.1l-0.6-3.7l0,0l-17.9-117.2l-22.2-4.3l-59.4,99.5l0,0c-6.7,11.3-14.1,10-14.1,10l-1.5,7.5
		l32.3,6.3l1.5-7.5c-8.1-1.6-6.2-8.1-4.6-11.5l13.4-24.6l39.6,7.8l1.8,28.7l0,0c0.4,6.8-2.6,8.3-5.3,8.4l-4-0.8l-1.5,7.5l47.7,9.3
		l1.5-7.5C348.9,450.2,347.1,446.1,346.3,443.1L346.3,443.1z M279.1,387l29.3-53.7l3.7,60.2L279.1,387L279.1,387z"/>
	<path class="st11" d="M133.8,245.7c-15.3-3-13.9-17.5-13.9-17.5l-11.3-2.2l-13.2,67.6l11.3,2.2c0,0,4.1-14,19.4-11l98.3,19.3
		l-18.6,95.2c-5.1,26-27,50.9-63,43.8c-24.5-4.8-46.3-24.9-41.9-59.1c0.3-1.9,2.1-9.4,8.1-8.2l1.6-8.2l-39.8-7.8l-1.6,8.2h0.1
		c1.1,0.2,8.4,2.1,6.5,11.6H76c-3.1,22,1.5,42.1,13.4,58.3c11.4,15.5,28.7,26.2,48.6,30.1c38.4,7.5,82.5-12,92.7-63.8l18.6-95.2
		l4.5-22.9l3.2-16.3L133.8,245.7L133.8,245.7z"/>
</g>
<g id="tunes">
	<g>
		<polygon class="st8" points="681.5,281.7 675.1,282.2 670.5,286.6 668.1,280.7 662.5,277.7 667.3,273.6 668.5,267.3 673.9,270.6 
			680.2,269.8 678.7,276 		"/>
		<polygon class="st8" points="767.8,297.7 763.2,296 758.7,297.6 758.9,292.8 756,289 760.6,287.7 763.4,283.8 766,287.8 
			770.6,289.1 767.6,292.9 		"/>
		<polygon class="st8" points="776.7,110.1 779.8,112.9 783.7,111.4 782,115.3 784.6,118.6 780.4,118.2 778.1,121.6 777.2,117.6 
			773.2,116.4 776.8,114.3 		"/>
		<path class="st1" d="M686.7,41.4c0,0,20.9-30.2,72-44.2c0,0-44.6,14.8-68.8,48.1L686.7,41.4L686.7,41.4z"/>
		<polygon class="st8" points="685.9,31.8 689.9,37.2 696.5,36.4 692.6,41.8 695.5,47.9 689.1,45.8 684.2,50.4 684.2,43.7 
			678.3,40.5 684.7,38.4 		"/>
		<g>
			<g>
				<path class="st8" d="M724.3,56.9c-0.5,0.1-0.9-0.2-1-0.6l-1.5-6.6c-0.1-0.5,0.2-0.9,0.6-1s0.9,0.2,1,0.6l1.5,6.6
					C725,56.3,724.8,56.8,724.3,56.9z"/>
				<path class="st8" d="M726.9,68.4c-0.5,0.1-0.9-0.2-1-0.6l-1.5-6.6c-0.1-0.5,0.2-0.9,0.6-1s0.9,0.2,1,0.6l1.5,6.6
					C727.7,67.9,727.4,68.3,726.9,68.4z"/>
			</g>
			<g>
				<path class="st8" d="M733.9,57.3l-6.6,1.5c-0.5,0.1-0.9-0.2-1-0.6s0.2-0.9,0.6-1l6.6-1.5c0.5-0.1,0.9,0.2,1,0.6
					S734.4,57.2,733.9,57.3z"/>
				<path class="st8" d="M722.4,59.9l-6.6,1.5c-0.5,0.1-0.9-0.2-1-0.6s0.2-0.9,0.6-1l6.6-1.5c0.5-0.1,0.9,0.2,1,0.6
					S722.9,59.8,722.4,59.9z"/>
			</g>
		</g>
		<g>
			<g>
				<path class="st8" d="M707.2,300.6c-0.2,0-0.4,0-0.6-0.1l-4.7-3c-0.4-0.2-0.5-0.8-0.3-1.2c0.2-0.4,0.8-0.5,1.2-0.3l4.7,3
					c0.4,0.2,0.5,0.8,0.3,1.2C707.6,300.4,707.4,300.6,707.2,300.6L707.2,300.6z"/>
				<path class="st8" d="M715.4,305.8c-0.2,0-0.4,0-0.6-0.1l-4.7-3c-0.4-0.2-0.5-0.8-0.3-1.2c0.2-0.4,0.8-0.5,1.2-0.3l4.7,3
					c0.4,0.2,0.5,0.8,0.3,1.2C715.8,305.6,715.6,305.7,715.4,305.8L715.4,305.8z"/>
			</g>
			<g>
				<path class="st8" d="M710.1,300c-0.2,0-0.4,0-0.6-0.1c-0.4-0.2-0.5-0.8-0.3-1.2l3-4.7c0.2-0.4,0.8-0.5,1.2-0.3s0.5,0.8,0.3,1.2
					l-3,4.7C710.5,299.8,710.3,299.9,710.1,300L710.1,300z"/>
				<path class="st8" d="M704.9,308.2c-0.2,0-0.4,0-0.6-0.1c-0.4-0.2-0.5-0.8-0.3-1.2l3-4.7c0.2-0.4,0.8-0.5,1.2-0.3
					s0.5,0.8,0.3,1.2l-3,4.7C705.3,308,705.1,308.1,704.9,308.2L704.9,308.2z"/>
			</g>
		</g>
		<g>
			<g>
				<path class="st11" d="M596,223.6c-0.2,0.1-0.4,0-0.6-0.1l-4.7-3c-0.4-0.2-0.5-0.8-0.3-1.2s0.8-0.5,1.2-0.3l4.7,3
					c0.4,0.2,0.5,0.8,0.3,1.2C596.4,223.4,596.2,223.6,596,223.6L596,223.6z"/>
				<path class="st11" d="M604.2,228.8c-0.2,0.1-0.4,0-0.6-0.1l-4.7-3c-0.4-0.2-0.5-0.8-0.3-1.2s0.8-0.5,1.2-0.3l4.7,3
					c0.4,0.2,0.5,0.8,0.3,1.2C604.6,228.6,604.4,228.8,604.2,228.8L604.2,228.8z"/>
			</g>
			<g>
				<path class="st11" d="M598.8,223c-0.2,0.1-0.4,0-0.6-0.1c-0.4-0.2-0.5-0.8-0.3-1.2l3-4.7c0.2-0.4,0.8-0.5,1.2-0.3
					s0.5,0.8,0.3,1.2l-3,4.7C599.3,222.8,599.1,222.9,598.8,223L598.8,223z"/>
				<path class="st11" d="M593.7,231.2c-0.2,0.1-0.4,0-0.6-0.1c-0.4-0.2-0.5-0.8-0.3-1.2l3-4.7c0.2-0.4,0.8-0.5,1.2-0.3
					s0.5,0.8,0.3,1.2l-3,4.7C594.1,231,593.9,231.2,593.7,231.2L593.7,231.2z"/>
			</g>
		</g>
		<g>
			<g>
				<path class="st11" d="M829,204.6c-0.1,0.1-0.2,0.2-0.3,0.2l-2.8,0.6c-0.2,0.1-0.5-0.1-0.5-0.3s0.1-0.5,0.3-0.5l2.8-0.6
					c0.2-0.1,0.5,0.1,0.5,0.3C829.1,204.4,829,204.5,829,204.6L829,204.6z"/>
				<path class="st11" d="M834,203.4c-0.1,0.1-0.2,0.2-0.3,0.2l-2.8,0.6c-0.2,0.1-0.5-0.1-0.5-0.3s0.1-0.5,0.3-0.5l2.8-0.6
					c0.2-0.1,0.5,0.1,0.5,0.3C834,203.2,834,203.3,834,203.4L834,203.4z"/>
			</g>
			<g>
				<path class="st11" d="M829.8,203.2c-0.1,0.1-0.2,0.2-0.3,0.2c-0.2,0.1-0.5-0.1-0.5-0.3l-0.7-2.9c0-0.2,0.1-0.5,0.3-0.5
					c0.2-0.1,0.5,0.1,0.5,0.3l0.7,2.9C829.9,203,829.9,203.2,829.8,203.2L829.8,203.2z"/>
				<path class="st11" d="M831,208.2c-0.1,0.1-0.2,0.2-0.3,0.2c-0.2,0.1-0.5-0.1-0.5-0.3l-0.7-2.9c0-0.2,0.1-0.5,0.3-0.5
					s0.5,0.1,0.5,0.3l0.7,2.9C831,208,831,208.2,831,208.2L831,208.2z"/>
			</g>
		</g>
		<g>
			<g>
				<path class="st11" d="M678.5,79.9c-0.1,0.1-0.2,0.2-0.3,0.2l-2.8,0.7c-0.2,0.1-0.5-0.1-0.5-0.3c0-0.2,0.1-0.5,0.3-0.5l2.8-0.7
					c0.2-0.1,0.5,0.1,0.5,0.3C678.6,79.7,678.6,79.8,678.5,79.9L678.5,79.9z"/>
				<path class="st11" d="M683.5,78.7c-0.1,0.1-0.2,0.2-0.3,0.2l-2.8,0.7c-0.2,0.1-0.5-0.1-0.5-0.3c0-0.2,0.1-0.5,0.3-0.5l2.8-0.7
					c0.2-0.1,0.5,0.1,0.5,0.3C683.6,78.5,683.6,78.6,683.5,78.7L683.5,78.7z"/>
			</g>
			<g>
				<path class="st11" d="M679.4,78.5c-0.1,0.1-0.2,0.2-0.3,0.2c-0.2,0.1-0.5-0.1-0.5-0.3l-0.7-2.8c0-0.2,0.1-0.5,0.3-0.5
					c0.2-0.1,0.5,0.1,0.5,0.3l0.7,2.8C679.5,78.3,679.4,78.4,679.4,78.5L679.4,78.5z"/>
				<path class="st11" d="M680.5,83.5c-0.1,0.1-0.2,0.2-0.3,0.2c-0.2,0.1-0.5-0.1-0.5-0.3l-0.7-2.8c0-0.2,0.1-0.5,0.3-0.5
					s0.5,0.1,0.5,0.3l0.7,2.8C680.6,83.3,680.5,83.4,680.5,83.5L680.5,83.5z"/>
			</g>
		</g>
	</g>
	<g>
		<path class="st12" d="M891.6,307.8l0.6-15.8l0,0l0.1-3.5l-14.3-0.6l-0.3,7l12.8,0.5l-0.3,8.9c-0.8-0.8-1.9-1.3-3.1-1.3
			c-2.6-0.1-4.8,1.9-4.8,4.5c-0.1,2.6,1.9,4.8,4.5,4.9C889.4,312.3,891.5,310.3,891.6,307.8L891.6,307.8z"/>
		<path class="st12" d="M876.2,304c-0.8-1-2-1.6-3.4-1.7c-2.6-0.1-4.8,1.9-4.8,4.5c-0.1,2.6,1.9,4.8,4.5,4.9s4.8-1.9,4.8-4.5
			l0.6-16.2l0.1-3.1h-1.2L876.2,304L876.2,304z"/>
	</g>
	<g>
		<path class="st12" d="M933.8,301.3l0.6-15.8l0,0l0.1-3.5l-14.3-0.6l-0.3,7l12.8,0.5l-0.3,8.9c-0.8-0.8-1.9-1.3-3.1-1.3
			c-2.6-0.1-4.8,1.9-4.8,4.5c-0.1,2.6,1.9,4.8,4.5,4.9C931.5,305.9,933.7,303.9,933.8,301.3L933.8,301.3z"/>
		<path class="st12" d="M918.4,297.6c-0.8-1-2-1.6-3.4-1.7c-2.6-0.1-4.8,1.9-4.8,4.5c-0.1,2.6,1.9,4.8,4.5,4.9s4.8-1.9,4.8-4.5
			l0.6-16.2l0.1-3.1H919L918.4,297.6L918.4,297.6z"/>
	</g>
	<g>
		<path class="st12" d="M729,388.2l0.6-15.8l0,0l0.1-3.5l-14.3-0.6l-0.3,7l12.8,0.5l-0.3,8.9c-0.8-0.8-1.9-1.3-3.1-1.3
			c-2.6-0.1-4.8,1.9-4.8,4.5c-0.1,2.6,1.9,4.8,4.5,4.9C726.7,392.8,728.9,390.8,729,388.2L729,388.2z"/>
		<path class="st12" d="M713.5,384.5c-0.8-1-2-1.6-3.4-1.7c-2.6-0.1-4.8,1.9-4.8,4.5c-0.1,2.6,1.9,4.8,4.5,4.9s4.8-1.9,4.8-4.5
			l0.6-16.2l0.1-3.1h-1.2L713.5,384.5L713.5,384.5z"/>
	</g>
	<g>
		<path class="st12" d="M691.8,382l-14.7-14.3l0,0l-3.2-3.1L661,377.8l6.5,6.3l11.5-11.8l8.2,8c-1.4,0.1-2.8,0.7-3.9,1.8
			c-2.3,2.4-2.3,6.2,0.1,8.5s6.2,2.3,8.5-0.1C694.3,388.1,694.2,384.3,691.8,382L691.8,382z"/>
		<path class="st12" d="M674.9,393.5c-1.6,0-3.3,0.5-4.5,1.8c-2.3,2.4-2.3,6.2,0.1,8.5s6.2,2.3,8.5-0.1s2.3-6.2-0.1-8.5l-15-14.6
			l-2.9-2.8l-1.1,1.1L674.9,393.5L674.9,393.5z"/>
	</g>
	<g>
		<path class="st13" d="M803.7,366c-2.3,1.4-5.2,0.7-6.7-1.5c-1.4-2.3-0.7-5.2,1.5-6.6c2.3-1.4,5.2-0.7,6.7,1.5
			S805.9,364.6,803.7,366z"/>
		
			<rect x="802" y="360.2" transform="matrix(0.8489 -0.5286 0.5286 0.8489 -68.362 482.8295)" class="st13" width="16.4" height="1.6"/>
		<g>
			<path class="st13" d="M795.8,353.4c-2.3,1.4-5.2,0.7-6.7-1.5c-1.4-2.3-0.7-5.2,1.5-6.6c2.3-1.4,5.2-0.7,6.7,1.5
				S798.1,352,795.8,353.4z"/>
			
				<rect x="810" y="343.6" transform="matrix(0.8489 -0.5286 0.5286 0.8489 -62.5885 483.1093)" class="st13" width="7.2" height="14.8"/>
			<polygon class="st13" points="810.1,344.5 795.8,353.4 795.1,352.3 812.1,341.8 812.8,342.8 			"/>
		</g>
	</g>
	<g>
		<path class="st13" d="M934.9,270.5c-2.3,1.4-5.2,0.7-6.7-1.5c-1.4-2.3-0.7-5.2,1.5-6.6c2.3-1.4,5.2-0.7,6.7,1.5
			S937.2,269.1,934.9,270.5z"/>
		
			<rect x="933.2" y="264.6" transform="matrix(0.8489 -0.5286 0.5286 0.8489 1.9777 537.7272)" class="st13" width="16.4" height="1.6"/>
		<g>
			<path class="st13" d="M927.1,257.9c-2.3,1.4-5.2,0.7-6.7-1.5c-1.4-2.3-0.7-5.2,1.5-6.6c2.3-1.4,5.2-0.7,6.7,1.6
				C930,253.5,929.3,256.5,927.1,257.9L927.1,257.9z"/>
			
				<rect x="941.3" y="248.1" transform="matrix(0.8489 -0.5286 0.5286 0.8489 7.7552 538.0847)" class="st13" width="7.2" height="14.8"/>
			<polygon class="st13" points="941.3,249 927.1,257.9 926.4,256.8 943.4,246.2 944,247.3 			"/>
		</g>
	</g>
	<g>
		<path class="st13" d="M868.2,430.6c-2.3,1.4-5.2,0.7-6.7-1.5c-1.4-2.3-0.7-5.2,1.5-6.6c2.3-1.4,5.2-0.7,6.7,1.5
			S870.5,429.1,868.2,430.6z"/>
		
			<rect x="866.5" y="424.7" transform="matrix(0.8489 -0.5286 0.5286 0.8489 -92.7299 526.6693)" class="st13" width="16.4" height="1.6"/>
		<g>
			<path class="st13" d="M860.4,418c-2.3,1.4-5.2,0.7-6.7-1.5c-1.4-2.3-0.7-5.2,1.5-6.6c2.3-1.4,5.2-0.7,6.7,1.5
				C863.3,413.6,862.6,416.6,860.4,418z"/>
			
				<rect x="874.6" y="408.2" transform="matrix(0.8489 -0.5286 0.5286 0.8489 -86.9525 527.0266)" class="st13" width="7.2" height="14.8"/>
			<polygon class="st13" points="874.6,409.1 860.4,418 859.7,416.9 876.7,406.3 877.3,407.4 			"/>
		</g>
	</g>
	<g>
		<path class="st13" d="M662.5,329.4c-2.3,1.4-5.2,0.7-6.7-1.5c-1.4-2.3-0.7-5.2,1.5-6.6c2.3-1.4,5.2-0.7,6.7,1.5
			S664.8,328,662.5,329.4z"/>
		
			<rect x="660.8" y="323.6" transform="matrix(0.8489 -0.5286 0.5286 0.8489 -70.3737 402.662)" class="st13" width="16.4" height="1.6"/>
		<g>
			<path class="st13" d="M654.7,316.8c-2.3,1.4-5.2,0.7-6.7-1.5s-0.7-5.2,1.5-6.6c2.3-1.4,5.2-0.7,6.7,1.5
				C657.6,312.5,656.9,315.4,654.7,316.8z"/>
			
				<rect x="668.9" y="307" transform="matrix(0.8489 -0.5286 0.5286 0.8489 -64.5577 402.9812)" class="st13" width="7.2" height="14.8"/>
			<polygon class="st13" points="668.9,308 654.7,316.8 654,315.8 671,305.2 671.6,306.3 			"/>
		</g>
	</g>
	<g>
		<path class="st13" d="M841.1,263.6c-2.3,1.4-5.2,0.7-6.7-1.5c-1.4-2.3-0.7-5.2,1.5-6.6c2.3-1.4,5.2-0.7,6.7,1.5
			C844.1,259.2,843.4,262.2,841.1,263.6z"/>
		
			<rect x="839.4" y="257.7" transform="matrix(0.8489 -0.5286 0.5286 0.8489 -8.5523 487.0952)" class="st13" width="16.4" height="1.6"/>
		<g>
			<path class="st13" d="M833.2,251c-2.3,1.4-5.2,0.7-6.7-1.6s-0.7-5.2,1.5-6.6c2.3-1.4,5.2-0.7,6.7,1.6
				C836.2,246.6,835.5,249.6,833.2,251z"/>
			
				<rect x="847.4" y="241.2" transform="matrix(0.8489 -0.5286 0.5286 0.8489 -2.8131 487.4142)" class="st13" width="7.2" height="14.8"/>
			<polygon class="st13" points="847.5,242.1 833.2,251 832.6,249.9 849.6,239.4 850.2,240.4 			"/>
		</g>
	</g>
	<path class="st13" d="M760.8,238l0.3,1.2l15.3-4.1l-3-11.1l-15.3,4.1l-1.9,0.5l6.9,25.6c-1.7-1.1-3.9-1.5-6.1-0.9
		c-4.1,1.1-6.5,5.3-5.4,9.3c1.1,4.1,5.3,6.5,9.3,5.4c4.1-1.1,6.5-5.3,5.4-9.4L760.8,238L760.8,238z"/>
	<g>
		
			<rect x="598.3" y="325.2" transform="matrix(0.7191 -0.6949 0.6949 0.7191 -60.4679 511.1926)" class="st14" width="7.5" height="10.4"/>
		<path class="st14" d="M587.7,335.2c0.1-1.4-0.4-2.8-1.4-3.8c-1.9-2-5.1-2-7.1-0.1s-2,5.1-0.1,7.1s5.1,2,7.1,0.1l12.5-12.1l2.4-2.3
			l-0.9-0.9L587.7,335.2L587.7,335.2z"/>
	</g>
	<path class="st11" d="M825.8,471l-0.2,2.1l-0.2,2.1l-0.9,7.4c-0.3-0.1-0.5-0.2-0.8-0.2c-1.4-0.2-2.7,0.8-2.9,2.3s0.8,2.7,2.3,2.9
		c1.4,0.2,2.7-0.8,2.9-2.3l1.2-9.8l10.7,1.3l-0.9,7.4c-0.3-0.1-0.5-0.2-0.8-0.2c-1.4-0.2-2.7,0.8-2.9,2.3s0.8,2.7,2.3,2.9
		c1.4,0.2,2.7-0.8,2.9-2.3l1.2-9.8l0.2-2.1l0.2-2.1L825.8,471L825.8,471z"/>
	<path class="st11" d="M761.2,426.4l-1.1,1.2l-1.1,1.2l-3.7,4.2c-0.1-0.2-0.2-0.4-0.4-0.5c-0.8-0.7-2-0.6-2.7,0.2
		c-0.7,0.8-0.6,2,0.2,2.7s2,0.6,2.7-0.2l4.9-5.6l6.1,5.3l-3.7,4.2c-0.1-0.2-0.2-0.4-0.4-0.5c-0.8-0.7-2-0.6-2.7,0.2
		c-0.7,0.8-0.6,2,0.2,2.7s2,0.6,2.7-0.2l4.9-5.6l1.1-1.2l1.1-1.2L761.2,426.4L761.2,426.4z"/>
	<path class="st11" d="M696.8,560.4l-0.7,2.2l-2.9,9.7c-0.2-0.2-0.5-0.3-0.8-0.4c-1.4-0.4-3,0.4-3.4,1.8s0.4,3,1.8,3.4
		s3-0.4,3.4-1.8l3.5-11.8c2.6,0.5,3.1,3.8,3.1,3.8C702.3,562.5,696.8,560.4,696.8,560.4L696.8,560.4z"/>
</g>
<g id="man">
	<path class="st15" d="M665.3,1006.3c-2.7,3.4-5.7,6.7-9.3,9c-3.9,2.5-8.4,3.9-12.7,5.8c-4.3,1.8-8.5,4.3-11,8.2h42.2
		c1-7.7,2-17.1,4.2-24.6L665.3,1006.3L665.3,1006.3z"/>
	<path class="st15" d="M758.8,1005.5v23.4l35.6,0.3c-3.4-3.2-7.1-5.8-11.3-7.9s-8.4-4.2-11.7-7.5s-5.4-8.1-4.5-12.7L758.8,1005.5z"
		/>
	<path class="st16" d="M772.9,1008.2h-17.8c-2-17.3-4.1-34.6-3.9-52c0.2-23.2,2.2-47,3.4-70.2c0.8-15.5,0.3-31.1-0.2-46.6
		c-0.3-10.5-0.5-20.1-0.8-30.6c-24.1,67.6-46.8,135.8-73.2,202.5c-7.8-0.1-15-2-22.5-4c22.9-87.6,51.1-175.2,74-262.8l7.1-2.4
		l49.3,2.2C784.7,832.6,779.8,920,772.9,1008.2L772.9,1008.2z"/>
	<path class="st17" d="M733.1,731.5c0,0-0.6,8.7-1.3,13c18.5,4.4,37.9,4.2,56.4-0.2c0.3-6-0.3-12.2-2.1-18L733.1,731.5L733.1,731.5z
		"/>
	<path class="st17" d="M823.4,651.6c2.1,1.2,3.9,2.8,5.4,4.7c0.2,0.3,0.5,0.8,0.2,1.1c-0.1,0.2-0.3,0.3-0.6,0.3
		c-1.7,0.4-3.2-0.9-4.5-2.1l1.8,5.4c0.1,0.2,0.2,0.5,0.1,0.8c-0.2,0.5-0.8,0.5-1.3,0.4c-1.3-0.4-1.9-1.8-2.4-3.1
		c0.3,1,0.5,2,0.6,3.1c0,0.3,0,0.6-0.1,0.9c-0.2,0.5-0.7,0.7-1.2,0.9c-2,0.5-4.2-0.3-5.7-1.8c-1.8-1.8-2.6-4.5-2.1-7
		s2.4-4.7,4.8-5.5L823.4,651.6L823.4,651.6z"/>
	<path class="st15" d="M802.4,671.1c1.6-4.6,3.2-9.3,4.8-13.9c0.5-1.5,1-3,2-4.3c0.9-1.2,2-2.1,3.2-3c1.5-1.1,2.9-2.2,4.5-3.2
		c0.9-0.6,1.9-1.2,2.9-1c0.6,0.1,1.1,0.4,1.6,0.8c2.2,1.4,4.3,2.9,6.5,4.3c0.2,0.2,0.5,0.3,0.6,0.6c0.3,0.7-0.6,1.3-1.3,1.5
		c-1.3,0.3-2.7,0.3-4,0c-0.9-0.2-1.8-0.6-2.7-0.5c-2.3,0.1-3.8,2.6-4.7,4.7c0.7,1.9,2.7,3,4.6,3.8c1.9,0.7,4,0.8,6,0.7
		c1-0.1,2.1-0.2,3.2,0c1,0.2,2.1,0.6,2.6,1.5c0.3,0.4,0.4,1.1,0,1.4c-0.2,0.2-0.5,0.3-0.7,0.3c-1.7,0.4-3.5,0.2-5.2,0.6
		c-4.1,0.9-7.3,4.7-11.5,4.6c-2.4,6.1-2,13.3-3.9,19.5L802.4,671.1L802.4,671.1z"/>
	<path class="st18" d="M774.5,703.3c4.7,6.4,12.2,10.6,20.1,11.3c2.3,0.2,4.8,0.1,6.9-1.1c2.2-1.2,3.5-3.5,4.7-5.7
		c3.9-7.2,6.7-15,8.8-22.9c-4.2-5.6-8.4-11.1-12.2-16.9c-4,6.1-8.2,12-12.5,17.8c-1.7-1.2-3.2-2.7-4.5-4.2
		c-7.1-8.2-14.7-16-22.7-23.5c-3.8-3.5-8.1-7.1-13.2-7.1c-4.2,0-8.2,2.5-10.7,6L774.5,703.3L774.5,703.3z"/>
	<path class="st15" d="M779.5,703.3c-1.9-9-5.3-17.7-10.2-25.5c-5.7-9.1-12.9-19.9-23.1-24.4c-1.3-0.6-2.8-1-4.2-0.8s-2.8,1.3-3,2.7
		L779.5,703.3L779.5,703.3z"/>
	<path class="st18" d="M715.2,694.1c-3-2.2-6-4.3-8.5-7s-4.5-5.9-5.3-9.5c-0.3-1.5-0.3-3.2,0.4-4.6c1.4-2.6,4.7-3.2,7.5-3.8
		c3.3-0.7,6.5-1.8,9.6-3.3c5.4-2.6,11.2-5.5,16.2-8.7c2.2-1.4,4.6-2.7,7.2-2.9c22.4,18.7,39.3,44,47.3,72.1c1.1,3.8-4.4,6.3-8.1,7.8
		c-8.3,3.4-17.4,3.9-26.3,3.8c-6.8-0.1-13.7-0.6-20.3-2.5c-1.4-0.4-2.8-0.8-3.8-1.7c-1.9-1.6-2.5-4.2-3-6.6
		C725.6,715.3,725.1,701.3,715.2,694.1L715.2,694.1z"/>
	<path class="st17" d="M767.3,726.2c-5.5-22.4-16.7-43.1-32.3-60.1l0.4-0.4c15.7,17,26.9,37.9,32.4,60.3L767.3,726.2L767.3,726.2z"
		/>
	<path class="st15" d="M744,702c-7.8-12.7-16.7-24.6-26.6-35.7c-1.7,0.4-3.6,0.9-5.1,1.9c7.1,9.5,14,18.8,21.4,28L744,702L744,702z"
		/>
	<path class="st16" d="M719.5,626.9c2.2-0.1,4.4,0,6.6,0.4c1.3,0.2,2.5,0.6,3.7,1.3c1.1,0.7,2,1.8,2.3,3c0.2,0.9,0,2,0.5,2.8
		c0.7,1.2,2.5,1.4,3.6,2.2c1.3,0.9,1.8,2.5,1.8,4.1c-0.1,1.5-0.8,3-1.5,4.4c-1.2,2.3-2.8,4.5-5,5.9s-4.9,1.8-7.2,2.9
		c-0.5,0.2-1,0.5-1.3,0.8c-0.5,0.5-0.8,1.2-1,1.9c-0.9,2.6-1.8,5.2-3.8,7.1c-1.9,1.9-5.2,2.7-7.4,1.1c-2-1.5-2.7-4.6-5.1-5.1
		c-1.3-0.3-2.8,0.3-4.1-0.1c-1.8-0.5-2.5-2.7-2.5-4.6c0-3,1.2-5.8,2.8-8.3s3.4-4.8,5-7.4L719.5,626.9L719.5,626.9z"/>
	<path class="st15" d="M712.3,650c2.7,5.1,4.8,10.4,6.5,15.9c5.2,1.1,11,1.9,16.3,2.2c0.7,0,1.7-0.1,1.9-0.8c0.1-0.2,0-0.4,0-0.6
		c-0.4-3-2.1-5.7-3.8-8.2l-7.2-10.8L712.3,650L712.3,650z"/>
	<path class="st17" d="M722.5,653.7c2.3,0.3,4.8,0,7-0.8c-1.2-1.7-2.3-3.5-3.5-5.2l-11.1,1.8C716.7,651.8,719.5,653.3,722.5,653.7
		L722.5,653.7z"/>
	<path class="st15" d="M712.6,651.8c2.8,0.9,5.7,1.5,8.7,1.2c2.9-0.3,5.8-1.5,7.7-3.8s2.5-5.5,2-8.5s-2-5.7-3.9-8s-4.1-4.3-6.4-6.3
		c-4.6,2.9-8.6,6.7-11.6,11.2c1.1,1,2,2.3,2.7,3.6c0.4,0.6,0.7,1.3,0.8,2c0.2,1.4-0.6,2.8-1.8,3.7c0.5,0.8,0.8,1.8,1.1,2.7
		c-1.1-0.7-2.2-1.5-3.4-1.9s-2.7-0.3-3.6,0.7c-0.9,1-1.1,2.8-0.5,4.1c0.7,1.5,2.6,2.2,4.3,1.8S711.7,653.2,712.6,651.8L712.6,651.8z
		"/>
	<path class="st17" d="M705.9,651l0.2,0.2c0.5-0.3,1-0.6,1.6-0.6c-0.3,0.4-0.6,1-0.7,1.5h0.3c0.1-0.6,0.4-1.2,0.8-1.6
		c0.7,0,1.3,0.1,1.9,0.4l0.1-0.3C708.8,650,707.1,650.1,705.9,651L705.9,651z"/>
	<path class="st17" d="M720.4,640.5c0,0-0.1,0-0.2,0c-0.5,0-1.1-0.2-1.5-0.6l0.2-0.2c0.4,0.3,0.9,0.5,1.3,0.5c0.5,0,0.8-0.1,1-0.4
		c0.1-0.1,0.1-0.2,0.1-0.4c0.1-0.5-0.2-1.1-0.7-1.4l0.2-0.3c0.6,0.3,0.9,1,0.8,1.7c0,0.2-0.1,0.4-0.2,0.5
		C721.3,640.3,720.9,640.5,720.4,640.5L720.4,640.5z"/>
	<path class="st17" d="M725.1,634.9c-0.1,0-0.2,0-0.3,0c-0.3-0.1-0.6-0.2-0.9-0.4l0.2-0.3c0.2,0.1,0.5,0.3,0.8,0.3s0.5,0,0.7-0.1
		c0.3-0.2,0.3-0.7,0.1-1c-0.2-0.4-0.5-0.6-0.8-0.8l0.2-0.2c0.3,0.2,0.7,0.5,0.9,0.9s0.2,1-0.2,1.3
		C725.6,634.8,725.3,634.9,725.1,634.9L725.1,634.9z"/>
	<path class="st17" d="M716.6,635.3l-0.6-0.1c0.1-0.8,0.4-1.5,0.9-2.2l0.5,0.3C717,633.9,716.7,634.6,716.6,635.3L716.6,635.3z"/>
	<path class="st17" d="M721,629.1l-0.4-0.4c0.5-0.4,1-0.8,1.6-1l0.2,0.6C721.8,628.4,721.4,628.7,721,629.1L721,629.1z"/>
	<path class="st17" d="M725.9,638.1l-0.2-0.2l1-0.8l-3.7-1.2l0.1-0.3l4,1.3l0.1,0.1c0,0.1,0,0.1-0.1,0.2L725.9,638.1L725.9,638.1z"
		/>
	<path class="st15" d="M790,721.9c5.8,1.1,11.5,1.9,17.4,2.5c4.6-4.6,9-8.7,13.6-13.3c0.8-0.8,1.6-1.6,2.7-2.1
		c0.9-0.4,1.8-0.5,2.8-0.7c3-0.4,6.1-0.6,9.2-0.7c2.1-0.1,3.5,1.9,5.2,3.2c1.4,1.1,2.7,2.3,4,3.5c0.4,0.3,0.8,0.8,0.7,1.3
		c-0.1,0.6-0.8,0.9-1.4,0.9c-3.6,0.2-6.6-2.7-10.1-3.6c-0.9-0.2-1.8-0.3-2.6,0c1.8,1,3.7,2.2,5.5,3.2c0.8,0.5,1.6,0.9,2.2,1.6
		c0.6,0.6,1,1.3,1.4,2.1c0.8,1.5,1.6,3,2.3,4.5c0.2,0.5,0.4,1,0.2,1.4c-0.3,0.7-1.2,0.8-1.9,0.6c-2.2-0.7-3.2-3.1-4.9-4.7
		c-1.3-1.3-3-2.1-4.8-2.3c0.7,1.1,1.2,2.5,2,3.6c0.4,0.6,0.8,1.2,1,1.8c0.8,2.1-0.1,4.5-1,6.5c-0.2,0.3-0.3,0.7-0.7,0.8
		c-0.5,0.2-1-0.2-1.3-0.6c-0.5-0.6-0.8-1.4-0.9-2.2c-0.1-0.5,0-1.1-0.1-1.6c-0.1-1.4-0.8-2.8-1.8-3.8c-0.2,1.7-0.3,3.6-0.5,5.3
		c-0.2,1.8-0.5,3.7-1.8,4.9c-0.4,0.3-0.9,0.6-1.4,0.6s-1-0.3-1.2-0.7c-0.1-0.2-0.1-0.5-0.1-0.7l-0.2-4.3c-2.1,3.5-5.7,6.1-9.6,7.5
		s-8,1.7-12.2,1.9c-7.4,0.3-14.8,0-22.2-0.3L790,721.9L790,721.9z"/>
	<path class="st17" d="M722.6,643.8c1.9-1.3,3.6-2.7,5.3-4.2c0.2,0.8-0.2,1.9-0.8,2.5c-0.5,0.7-1.3,1.1-2.2,1.3
		C724.2,643.7,723.4,643.7,722.6,643.8L722.6,643.8z"/>
	<path class="st17" d="M734.6,665.8l-19.7-1.8c0,0-2.2,8.3,13.1,19.4l9.1-15.3l17.1-0.9c0,0-1.9-12.2-15.7-16.9L734.6,665.8
		L734.6,665.8z"/>
	<path class="st18" d="M707.2,669.8c11.2,9,24.5,18.8,36.3,27c9.1,6.4,18.5,12.5,28.7,17c7.3,3.2,14.5,5.8,22.2,8.2
		c-3.3,5.9-6.5,11.8-9.8,17.7c-1.3,2.4-2.6,4.7-3.5,7.3c-23.7-5.2-44.2-19.3-62.2-35.7c-7.1-6.4-14.1-13.3-18.5-21.8
		c-1.9-3.6-3.3-7.8-2.5-11.8S703,670.8,707.2,669.8L707.2,669.8z"/>
	<path class="st19" d="M754,704.7c-4.8,0-9.6-0.2-14.3-0.6v-0.6c5.1,0.5,10.3,0.7,15.5,0.6v0.6C754.8,704.7,754.4,704.7,754,704.7
		L754,704.7z"/>
	
		<rect x="734.3" y="705.9" transform="matrix(0.9966 -8.245987e-02 8.245987e-02 0.9966 -55.7066 63.5862)" class="st19" width="15.3" height="0.6"/>
	<path class="st17" d="M764.1,787.7c2.1-2.5,4.8-4.6,6.5-7.5c-2.2-1.3-4.6-2.1-7-2.4c2.1-6.8,2.3-13.2,3.5-20.2
		c-3.6,17.6-7.9,34.1-13.5,51.2c0.3,8.6,0.4,16.7,0.6,25.1c0.5-6,1-12,1.5-18C756.6,806,757.7,795.3,764.1,787.7z"/>
	<path class="st17" d="M694.3,893v-0.6c4.2,0,8.3-0.6,12.3-1.8l0.2,0.6C702.8,892.4,698.6,893,694.3,893L694.3,893z"/>
	<path class="st17" d="M699.4,897.7c-2.8,0-5.7-0.8-8.1-2.2l0.3-0.5c3.2,1.9,7.1,2.6,10.8,1.8l0.1,0.6
		C701.6,897.6,700.5,897.7,699.4,897.7L699.4,897.7z"/>
	
		<rect x="771.6" y="898.8" transform="matrix(0.8469 -0.5318 0.5318 0.8469 -359.394 550.1298)" class="st17" width="7.8" height="0.6"/>
	<path class="st17" d="M770.4,908.4L770,908c2.4-2.7,5-5.4,7.6-8l0.4,0.4C775.4,903,772.8,905.7,770.4,908.4L770.4,908.4z"/>
	<polygon class="st17" points="719.9,626.7 716,623.8 698.1,644.8 701.3,647.7 	"/>
	<path class="st18" d="M710.3,619.6c0,0-12.8,7.2-17.4,20.5l5.2,4.8l17.9-21L710.3,619.6L710.3,619.6z"/>
	<polygon class="st18" points="724.6,620.4 694.9,654.1 696.1,655.2 725.8,621.1 	"/>
	<path class="st19" d="M787.5,720c-22.3-7.6-39.3-19.5-53-29c-2-1.4-3.9-2.7-5.7-4c-2.5-1.7-4.8-3.6-7.1-5.5
		c-3.2-2.6-6.5-5.3-10.2-7.4l0.3-0.5c3.7,2.1,7,4.8,10.2,7.4c2.3,1.8,4.6,3.7,7.1,5.4c1.8,1.3,3.7,2.6,5.8,4
		c13.6,9.5,30.6,21.3,52.8,28.9L787.5,720L787.5,720z"/>
	<path class="st19" d="M757.1,738.6c-13-6.8-26.4-16.5-39.9-28.7c-3.5-3.1-8.6-7.9-12.5-13.3c-4.5-6.2-6.9-11.6-7.2-16.7h0.6
		c0.3,5,2.7,10.3,7.1,16.4c3.9,5.4,9,10.1,12.5,13.3c13.5,12.2,26.8,21.8,39.8,28.6L757.1,738.6L757.1,738.6z"/>
	<path class="st19" d="M784,697.6l-0.5-0.2c1.8-4,4-8,6.4-11.6l0.5,0.3C787.9,689.7,785.8,693.6,784,697.6L784,697.6z"/>
	<path class="st19" d="M785,690.1l-0.4-0.4c1.5-1.5,3.2-2.7,5-3.8l0.3,0.5C788.1,687.5,786.4,688.7,785,690.1L785,690.1z"/>
	<path class="st19" d="M784.3,712.1c-7.1-16.3-16-30.5-27.3-43.4l0.4-0.4c11.3,13,20.3,27.2,27.4,43.5L784.3,712.1L784.3,712.1z"/>
	<g>
		<polygon class="st17" points="657.8,798.1 662.7,798.1 822.9,1023.8 818,1023.8 		"/>
		<rect x="699.6" y="767.1" class="st15" width="180.6" height="24.3"/>
		<path class="st17" d="M680.2,767.1c0,0-1.5,14.6-12.2,14.6h-10.2v9.7h41.8v-24.3H680.2L680.2,767.1z"/>
		<rect x="657.8" y="791.4" class="st17" width="41.8" height="6.7"/>
		<rect x="699.6" y="791.4" class="st17" width="180.6" height="6.7"/>
		<rect x="670.1" y="1023.8" class="st17" width="61.2" height="5.5"/>
		<rect x="803.9" y="1023.8" class="st17" width="61.2" height="5.5"/>
		<polygon class="st17" points="851.6,798.1 846.7,798.1 686.5,1023.8 691.4,1023.8 		"/>
		<polygon class="st15" points="880.2,798.1 875.4,798.1 715.2,1023.8 720,1023.8 		"/>
		<polygon class="st15" points="693.9,798.1 698.8,798.1 858.9,1023.8 854.1,1023.8 		"/>
	</g>
</g>
<path id="Z-2" class="st12" d="M435,933.4c0,0-3.7,8.2-28,3.5l-109.2-21.4L471,780.7l3.7-19.1L362,739.5c-8.6-1.7-6.7-17.2-6.7-17.2
	l-7.2-1.4l-9.7,49.7l7.2,1.4c0,0,4.1-15.1,12.7-13.4l99.2,19.4l-176.9,134l-10.3,52.7l126.5,24.8c24.3,4.8,24.6,13.8,24.6,13.8
	l11.7,2.3l13.7-69.9L435,933.4z"/>
<path id="Z-1" class="st13" d="M616.8,899.5c-1.6,8.3-12.2,9.7-12.2,9.7l-76.1-14.9l105.8-67.6l4.8-24.8l-80.5-15.8
	c-10.6-2.1-9-11.7-9-11.7l-7.2-1.4l-8.6,43.9l7.2,1.4c0,0,2.1-9.5,12.7-7.4l60.2,11.8l-117.2,65.4l-9.1,46.6l107.8,21.1
	c0,0,9.2,5.3,7.6,13.6l11.7,2.3l13.7-69.9L616.8,899.5z"/>
<path id="A" class="st14" d="M306.2,869.7l-0.6-3.8l0,0l0,0l-18.5-121.1l-22.9-4.5l-61.4,102.8l0,0c-6.9,11.6-14.5,10.4-14.5,10.4
	l-1.5,7.8l33.4,6.5l1.5-7.8c-8.3-1.6-6.4-8.4-4.8-11.8l13.8-25.4l40.9,8l1.8,29.6l0,0c0.4,7-2.7,8.6-5.5,8.7l-4.1-0.8l-1.5,7.8
	l49.3,9.7l1.5-7.8C308.9,877,307,872.9,306.2,869.7z M236.8,811.7l30.3-55.5l3.9,62.2L236.8,811.7z"/>
<path class="st20" d="M86.7,665.7c-15.9-3.1-14.3-18.1-14.3-18.1l-11.7-2.3l-13.7,69.9l11.7,2.3c0,0,4.2-14.4,20.1-11.3l101.6,19.9
	l-19.3,98.3c-5.3,26.9-27.9,52.5-65.1,45.3c-25.4-5-47.8-25.7-43.3-61.1c0.4-2,2.2-9.7,8.4-8.5l1.7-8.4l-41.2-8.1l-1.7,8.4l0.1,0
	c1.1,0.2,8.7,2.1,6.7,12l0.2,0c-3.2,22.7,1.5,43.5,13.8,60.2c11.8,16,29.6,27.1,50.2,31.1c39.7,7.8,85.3-12.4,95.8-65.9l19.3-98.3
	l4.6-23.6l3.3-16.9L86.7,665.7z"/>
</svg>
