<?xml version="1.0" encoding="UTF-8"?>
<svg id="Layer_1" data-name="Layer 1" xmlns="http://www.w3.org/2000/svg" viewBox="0 0 1280 1024">
  <defs>
    <style>
      .cls-1 {
        fill: #674b9d;
      }

      .cls-2 {
        fill: #000b39;
      }

      .cls-3 {
        fill: #f7941d;
      }

      .cls-4 {
        fill: #ea5761;
      }

      .cls-5 {
        fill: #fee400;
      }

      .cls-6 {
        fill: #fff;
      }

      .cls-7 {
        fill: #f2be51;
      }

      .cls-8 {
        fill: #ffc404;
      }

      .cls-9 {
        fill: #ffc303;
      }

      .cls-10 {
        fill: #fec957;
      }

      .cls-11 {
        fill: #fdf38f;
      }

      .cls-12 {
        fill: #f60;
      }

      .cls-13 {
        fill: #91ad8f;
      }

      .cls-14 {
        fill: #b89d6d;
      }

      .cls-15 {
        fill: #8fb7b8;
      }

      .cls-16 {
        fill: #cee6f0;
      }

      .cls-17 {
        fill: #aec3cc;
      }

      .cls-18 {
        fill: #a3cebb;
      }

      .cls-19 {
        fill: #422752;
      }

      .cls-20 {
        fill: #3b0986;
      }
    </style>
  </defs>
  <g id="Background">
    <rect class="cls-20" x="-2.5" width="1281.43" height="1025"/>
    <path class="cls-2" d="M1278.93,0V1025H-2.5v-59.06c47.25,9.95,108.08,16.19,186.39,16.19,382.1,0,226-259.05,465.97-326.14,239.98-67.09,165.42,188.23,328.51-13.94,163.09-202.19-58.25-388.61-144.45-530.24-27-44.35-29.31-81.59-19.73-111.82h464.74Z"/>
    <g>
      <path class="cls-17" d="M1218.35,55.91c0,75.14-76.14,136.05-170.08,136.05-55.33,0-104.52-21.13-135.55-53.88-21.67-22.83-34.53-51.29-34.53-82.17,0-19.92,5.36-38.86,14.98-55.91h310.2c9.62,17.05,14.98,35.99,14.98,55.91Z"/>
      <path class="cls-16" d="M1132.15,29.82c0,66.9-67.8,121.14-151.44,121.14-24.44,0-47.55-4.64-67.99-12.88-16.78-17.67-28.29-38.73-32.62-61.67-1.26-6.69-1.91-13.53-1.91-20.5,0-5.67,.44-11.26,1.3-16.75,2.1-13.81,6.8-26.97,13.68-39.15h234.34c3.03,9.54,4.64,19.53,4.64,29.82Z"/>
      <ellipse class="cls-17" cx="922.46" cy="98.77" rx="16.31" ry="13.05"/>
      <ellipse class="cls-17" cx="978.37" cy="132.32" rx="27.96" ry="22.36"/>
      <ellipse class="cls-17" cx="983.03" cy="70.82" rx="13.98" ry="11.18"/>
      <ellipse class="cls-17" cx="1105.35" cy="58.7" rx="33.78" ry="27.02"/>
      <ellipse class="cls-17" cx="1050.6" cy="104.36" rx="23.3" ry="18.64"/>
      <ellipse class="cls-17" cx="1021.48" cy="36.34" rx="19.8" ry="15.84"/>
      <ellipse class="cls-17" cx="927.12" cy="39.14" rx="9.32" ry="7.45"/>
      <ellipse class="cls-17" cx="1066.91" cy="16.77" rx="4.66" ry="3.73"/>
      <ellipse class="cls-17" cx="992.35" cy="9.32" rx="4.66" ry="3.73"/>
      <ellipse class="cls-17" cx="1027.3" cy="76.41" rx="4.66" ry="3.73"/>
      <ellipse class="cls-17" cx="943.43" cy="67.09" rx="4.66" ry="3.73"/>
      <path class="cls-17" d="M903.82,57.77c0,10.29-10.44,18.64-23.3,18.64h-.42c-1.26-6.69-1.91-13.53-1.91-20.5,0-5.67,.44-11.26,1.3-16.75,.33-.02,.68-.02,1.02-.02,12.86,0,23.3,8.35,23.3,18.64Z"/>
    </g>
    <path class="cls-16" d="M432.02,1023.73H-2.5v-71.68c7.76-4.23,16.84-7.04,26.77-7.99,24.44-2.33,47.2,7.32,59.11,23.17,4.08-1.9,8.71-3.17,13.7-3.65,18.41-1.77,35.2,7.9,39.35,22.01,4.08-4.73,10.6-8.09,18.29-8.83,14.24-1.36,27.17,6.78,28.87,18.17,.4,2.65,.16,5.22-.63,7.64l249.06,21.17Z"/>
    <path class="cls-1" d="M807.13,681.16l-189.42,54.21s-66.87-48.62-129.77-26.26c-62.91,22.36-83.88,61.5-135.13,48.45-51.26-13.05-48.93-78.27-114.16-82-65.24-3.73-74.56,80.14-142.12,59.64-40.17-12.19-63.86-65.88-99.02-101.53V0H555.32c8.22,20.56,10.07,49.63-11.46,86.66-46.6,80.14,76.89,61.5,100.18,119.27,23.3,57.77-32.62,91.32-4.66,137.91,27.96,46.59,58.25-5.59,109.5,39.14,51.26,44.73,58.25,298.18,58.25,298.18Z"/>
    <path class="cls-16" d="M853.82,543.77h320.36v-71.68c-7.76-4.23-16.84-7.04-26.77-7.99-24.44-2.33-47.2,7.32-59.11,23.17-4.08-1.9-8.71-3.17-13.7-3.65-18.41-1.77-35.2,7.9-39.35,22.01-4.08-4.73-10.6-8.09-18.29-8.83-14.24-1.36-27.17,6.78-28.87,18.17-.4,2.65-.16,5.22,.63,7.64l-134.9,21.17Z"/>
    <path class="cls-16" d="M957.64,1024h320.36v-71.68c-7.76-4.23-16.84-7.04-26.77-7.99-24.44-2.33-47.2,7.32-59.11,23.16-4.08-1.9-8.71-3.17-13.7-3.65-18.41-1.77-35.2,7.9-39.35,22.01-4.08-4.73-10.6-8.09-18.29-8.83-14.24-1.36-27.17,6.78-28.87,18.17-.4,2.65-.16,5.22,.63,7.64l-134.9,21.17Z"/>
  </g>
  <g id="sax">
    <polygon class="cls-12" points="1279.43 87.37 1279.43 105.98 1219.39 116 1216.37 97.89 1279.43 87.37"/>
    <polygon class="cls-12" points="1279.43 178.67 1279.43 197.27 1233.5 204.94 1230.48 186.83 1279.43 178.67"/>
    <path class="cls-8" d="M1245.55,130.44c3.74,24.48,11.29,57.88,33.88,176.47v393.87c-144.89,151.15-319.98,30.41-340.23-45.18-14.43-53.84-48.49-71.01-68.75-76.49-1.31-.35-2.57-.66-3.76-.92-.42-.1-.83-.2-1.24-.27-1.54-.32-2.95-.56-4.22-.75-1.06-.17-1.99-.28-2.82-.37-.16-.01-.3-.03-.44-.04-.17-.03-.35-.04-.51-.06-1.89-.17-2.96-.17-2.96-.17l95.18-234.48,8.1-19.96,12.48-30.73c4.56,3.25,9.01,6.61,13.37,10.08,37.17,29.49,67.11,66.31,88.36,107.59,23.75,46.12,36.62,97.82,36.62,151.17v17.75c0,1.44,.08,2.87,.27,4.25,2.09,16.7,16.35,29.63,33.61,29.63,.93,0,1.92-.03,2.95-.1,31.79-2.09,55.1-30.87,51.53-62.53l-1.14-10.08-44.86-397.4c-4.24-63.53,25.86-140.14,68.67-139.76h59.8V12.96c-18.48,15.6-44.17,50.1-33.88,117.48Z"/>
    <path class="cls-3" d="M1261.08,649.96l-125.64,50.82s-57.88-19.76-57.88-22.59-19.76-66.35-19.76-66.35l51.09-29.63c2.09,16.7,16.35,29.63,33.61,29.63,.93,0,1.92-.03,2.95-.1,31.79-2.09,55.1-30.87,51.53-62.53l-1.14-10.08c9.74-10.05,20.09-23.17,30.73-40.23,52.87-84.7,34.52,151.06,34.52,151.06Z"/>
    <path class="cls-5" d="M1245.55,130.44c3.74,24.48,11.29,57.88,33.88,176.47v393.87c-129.91,135.53-284.1,52.47-329.19-20.63-5.2-8.43-8.95-16.73-11.04-24.55-14.43-53.84-48.49-71.01-68.75-76.49-9.49-2.57-15.95-2.57-15.95-2.57l88.94-235.76c6.01,.71,13.23,3.32,21.22,7.61,55.75,29.89,149.67,141.29,143.95,256.99v17.75c0,3.52,1.74,7.64,4.56,12.03,18.9,29.41,55.33,28.11,86.4,12.07,24.8-12.8,38.92-25.51,40.33-56.57l-59.29-407.99c-6.14-93.74,23.66-149.42,52.12-180.7h46.7V12.96c-18.48,15.6-44.17,50.1-33.88,117.48Z"/>
    <path class="cls-12" d="M983.63,301.46l-18.97,46.94c-5.39-2.89-10.42-5.03-14.98-6.32l8.1-19.96,12.48-30.73c4.56,3.25,9.01,6.61,13.37,10.08Z"/>
    <path class="cls-3" d="M964.65,348.4l-55.5,137.39-38.71,93.33c-9.49-2.57-15.95-2.57-15.95-2.57l88.94-235.76c6.01,.71,13.23,3.32,21.22,7.61Z"/>
    <g>
      <polygon class="cls-3" points="1164.37 205 1126.93 212.13 1126.93 180.75 1164.37 185.03 1164.37 205"/>
      <ellipse class="cls-12" cx="1123.05" cy="192.91" rx="11.62" ry="30.71"/>
      <polygon class="cls-3" points="1171.86 267.47 1135.61 273.72 1135.61 246.22 1171.86 249.97 1171.86 267.47"/>
      <ellipse class="cls-12" cx="1131.86" cy="259.97" rx="11.25" ry="30"/>
      <polygon class="cls-3" points="1183.15 333.82 1146.9 340.07 1146.9 312.57 1183.15 316.32 1183.15 333.82"/>
      <ellipse class="cls-12" cx="1143.15" cy="326.32" rx="11.25" ry="30"/>
      <polygon class="cls-3" points="1190.21 404.41 1153.96 410.66 1153.96 383.16 1190.21 386.91 1190.21 404.41"/>
      <ellipse class="cls-12" cx="1150.21" cy="396.91" rx="11.25" ry="30"/>
      <polygon class="cls-3" points="1201.5 476.41 1165.25 482.66 1165.25 455.16 1201.5 458.91 1201.5 476.41"/>
      <ellipse class="cls-12" cx="1161.5" cy="468.91" rx="11.25" ry="30"/>
    </g>
    <path class="cls-9" d="M893.63,480.14l-40.76,98.26c-3.89,9.39-14.24,14.32-23.99,11.43h0c-11.24-3.33-17.17-15.63-12.76-26.5l119.36-294.67c4.33-10.69,16.72-15.59,27.19-10.76h0c9.78,4.52,14.3,15.91,10.26,25.91l-79.3,196.33Z"/>
    <path class="cls-11" d="M1279.43,448.99v251.8c-129.91,135.53-284.1,52.47-329.19-20.63l.21-.17c21.31-17.14,52.3-12.69,68.67,9.21,21.02,28.13,55.84,46.64,94.43,47.58,57.88,1.41,157.41-67.06,150.1-129.88-6.07-52.15-44.69-313.9-57.64-401.36-1.85-12.46,10.69-22.11,22.27-17.15h0c5.04,2.16,8.63,6.73,9.54,12.14l41.6,248.46Z"/>
    <path class="cls-11" d="M980.14,559.61s-57.88,11.29-50.82,43.76c7.06,32.47,31.06,52.23,60.7,43.76,29.65-8.47,25.41-96-9.88-87.53Z"/>
  </g>
  <g id="Jazz-word">
    <path class="cls-6" d="M470.95,504.78s-3.59,7.95-27.11,3.34l-105.68-20.7,167.62-130.43,3.63-18.51-109.1-21.37c-8.33-1.63-6.46-16.64-6.46-16.64l-6.97-1.36-9.43,48.13,6.97,1.36s3.93-14.61,12.26-12.97l96.03,18.81-171.25,129.72-9.98,50.96,122.38,23.97c23.52,4.61,23.85,13.32,23.85,13.32l11.32,2.22,13.24-67.62-11.32-2.22Z"/>
    <path class="cls-6" d="M620,478c-1.57,8-11.79,9.39-11.79,9.39l-73.6-14.42,102.36-65.43,4.69-23.95-77.91-15.26c-10.29-2.02-8.69-11.31-8.69-11.31l-6.97-1.36-8.32,42.46,6.97,1.36s2.03-9.21,12.32-7.2l58.3,11.42-113.46,63.25-8.83,45.08,104.31,20.43s8.94,5.14,7.37,13.15l11.32,2.22,13.24-67.62-11.32-2.22Z"/>
    <path class="cls-6" d="M346.29,443.07l-.57-3.71h0l-17.88-117.22-22.17-4.34-59.4,99.5h0c-6.73,11.27-14.08,10.02-14.08,10.02l-1.47,7.51,32.34,6.33,1.47-7.51c-8.08-1.58-6.18-8.1-4.61-11.45l13.39-24.56,39.57,7.75,1.78,28.66h0c.42,6.76-2.58,8.31-5.28,8.38l-4.01-.79-1.47,7.51,47.69,9.34,1.47-7.51c-4.21-.82-6-4.83-6.76-7.92Zm-67.18-56.08l29.29-53.73,3.74,60.2-33.02-6.47Z"/>
    <path class="cls-6" d="M133.79,245.69c-15.35-3.01-13.88-17.47-13.88-17.47l-11.32-2.22-13.24,67.62,11.32,2.22s4.09-13.95,19.44-10.95l98.32,19.26-18.64,95.16c-5.1,26.04-26.99,50.85-62.99,43.8-24.54-4.81-46.3-24.88-41.9-59.14,.35-1.91,2.1-9.43,8.1-8.25l1.6-8.17-39.85-7.81-1.6,8.17,.14,.03c1.07,.22,8.38,2.08,6.52,11.57l.16,.03c-3.1,22.01,1.46,42.07,13.36,58.27,11.39,15.52,28.66,26.21,48.61,30.12,38.38,7.52,82.54-11.97,92.68-63.76l18.64-95.16,4.48-22.87,3.2-16.33-123.15-24.12Z"/>
  </g>
  <g id="tunes">
    <g>
      <polygon class="cls-5" points="681.5 281.71 675.12 282.18 670.52 286.61 668.1 280.69 662.46 277.69 667.34 273.56 668.46 267.26 673.89 270.63 680.23 269.75 678.7 275.96 681.5 281.71"/>
      <polygon class="cls-5" points="767.75 297.7 763.25 296.02 758.72 297.61 758.92 292.82 756.01 289 760.64 287.71 763.37 283.76 766.02 287.76 770.62 289.14 767.64 292.9 767.75 297.7"/>
      <polygon class="cls-5" points="776.65 110.11 779.77 112.87 783.69 111.45 782.03 115.28 784.6 118.57 780.44 118.17 778.1 121.62 777.2 117.55 773.19 116.4 776.79 114.28 776.65 110.11"/>
      <path class="cls-2" d="M686.67,41.44s20.87-30.2,72.04-44.18c0,0-44.62,14.8-68.83,48.08l-3.2-3.9Z"/>
      <polygon class="cls-5" points="685.93 31.84 689.89 37.25 696.54 36.37 692.61 41.81 695.5 47.86 689.11 45.81 684.25 50.43 684.23 43.72 678.33 40.52 684.71 38.43 685.93 31.84"/>
      <g>
        <g>
          <path class="cls-5" d="M724.3,56.86c-.46,.1-.91-.18-1.01-.64l-1.5-6.6c-.1-.46,.18-.91,.64-1.01s.91,.18,1.01,.64l1.5,6.6c.1,.46-.18,.91-.64,1.01Z"/>
          <path class="cls-5" d="M726.94,68.4c-.46,.1-.91-.18-1.01-.64l-1.5-6.6c-.1-.46,.18-.91,.64-1.01s.91,.18,1.01,.64l1.5,6.6c.1,.46-.18,.91-.64,1.01Z"/>
        </g>
        <g>
          <path class="cls-5" d="M733.94,57.26l-6.6,1.5c-.46,.1-.91-.18-1.01-.64s.18-.91,.64-1.01l6.6-1.5c.46-.1,.91,.18,1.01,.64s-.18,.91-.64,1.01Z"/>
          <path class="cls-5" d="M722.39,59.9l-6.6,1.5c-.46,.1-.91-.18-1.01-.64s.18-.91,.64-1.01l6.6-1.5c.46-.1,.91,.18,1.01,.64s-.18,.91-.64,1.01Z"/>
        </g>
      </g>
      <g>
        <g>
          <path class="cls-5" d="M707.2,300.61c-.21,.05-.44,.02-.64-.11l-4.7-2.96c-.4-.25-.51-.77-.27-1.17,.25-.4,.77-.51,1.17-.27l4.7,2.96c.4,.25,.51,.77,.27,1.17-.12,.2-.32,.33-.53,.37Z"/>
          <path class="cls-5" d="M715.44,305.79c-.21,.05-.44,.02-.64-.11l-4.7-2.96c-.4-.25-.51-.77-.27-1.17,.25-.4,.77-.51,1.17-.27l4.7,2.96c.4,.25,.51,.77,.27,1.17-.12,.2-.32,.33-.53,.37Z"/>
        </g>
        <g>
          <path class="cls-5" d="M710.08,299.96c-.21,.05-.44,.02-.64-.11-.4-.25-.51-.77-.27-1.17l2.96-4.7c.25-.4,.77-.51,1.17-.27,.4,.25,.51,.77,.27,1.17l-2.96,4.7c-.12,.2-.32,.33-.53,.37Z"/>
          <path class="cls-5" d="M704.9,308.19c-.21,.05-.44,.02-.64-.11-.4-.25-.51-.77-.27-1.17l2.96-4.7c.25-.4,.77-.51,1.17-.27,.4,.25,.51,.77,.27,1.17l-2.96,4.7c-.12,.2-.32,.33-.53,.37Z"/>
        </g>
      </g>
      <g>
        <g>
          <path class="cls-6" d="M595.97,223.63c-.21,.05-.44,.02-.64-.11l-4.7-2.96c-.4-.25-.51-.77-.27-1.17,.25-.4,.77-.51,1.17-.27l4.7,2.96c.4,.25,.51,.77,.27,1.17-.12,.2-.32,.33-.53,.37Z"/>
          <path class="cls-6" d="M604.21,228.8c-.21,.05-.44,.02-.64-.11l-4.7-2.96c-.4-.25-.51-.77-.27-1.17,.25-.4,.77-.51,1.17-.27l4.7,2.96c.4,.25,.51,.77,.27,1.17-.12,.2-.32,.33-.53,.37Z"/>
        </g>
        <g>
          <path class="cls-6" d="M598.85,222.97c-.21,.05-.44,.02-.64-.11-.4-.25-.51-.77-.27-1.17l2.96-4.7c.25-.4,.77-.51,1.17-.27,.4,.25,.51,.77,.27,1.17l-2.96,4.7c-.12,.2-.32,.33-.53,.37Z"/>
          <path class="cls-6" d="M593.67,231.21c-.21,.05-.44,.02-.64-.11-.4-.25-.51-.77-.27-1.17l2.96-4.7c.25-.4,.77-.51,1.17-.27,.4,.25,.51,.77,.27,1.17l-2.96,4.7c-.12,.2-.32,.33-.53,.37Z"/>
        </g>
      </g>
      <g>
        <g>
          <path class="cls-6" d="M828.98,204.57c-.06,.1-.16,.17-.28,.2l-2.85,.65c-.24,.05-.48-.1-.53-.33-.05-.24,.1-.48,.33-.53l2.85-.65c.24-.05,.48,.1,.53,.34,.03,.12,0,.24-.06,.34Z"/>
          <path class="cls-6" d="M833.97,203.43c-.06,.1-.16,.17-.28,.2l-2.85,.65c-.24,.05-.48-.1-.53-.33-.05-.24,.1-.48,.33-.53l2.85-.65c.24-.05,.48,.1,.53,.34,.03,.12,0,.24-.06,.34Z"/>
        </g>
        <g>
          <path class="cls-6" d="M829.81,203.25c-.06,.1-.16,.17-.28,.2-.24,.05-.48-.1-.53-.33l-.65-2.85c-.05-.24,.1-.48,.34-.53,.24-.05,.48,.1,.53,.33l.65,2.85c.03,.12,0,.24-.06,.34Z"/>
          <path class="cls-6" d="M830.95,208.24c-.06,.1-.16,.17-.28,.2-.24,.05-.48-.1-.53-.33l-.65-2.85c-.05-.24,.1-.48,.33-.53s.48,.1,.53,.33l.65,2.85c.03,.12,0,.24-.06,.34Z"/>
        </g>
      </g>
      <g>
        <g>
          <path class="cls-6" d="M678.54,79.86c-.06,.1-.16,.17-.28,.2l-2.85,.65c-.24,.05-.48-.1-.53-.33-.05-.24,.1-.48,.33-.53l2.85-.65c.24-.05,.48,.1,.53,.34,.03,.12,0,.24-.06,.34Z"/>
          <path class="cls-6" d="M683.53,78.72c-.06,.1-.16,.17-.28,.2l-2.85,.65c-.24,.05-.48-.1-.53-.33-.05-.24,.1-.48,.34-.53l2.85-.65c.24-.05,.48,.1,.53,.34,.03,.12,0,.24-.06,.34Z"/>
        </g>
        <g>
          <path class="cls-6" d="M679.36,78.54c-.06,.1-.16,.17-.28,.2-.24,.05-.48-.1-.53-.33l-.65-2.85c-.05-.24,.1-.48,.34-.53,.24-.05,.48,.1,.53,.33l.65,2.85c.03,.12,0,.24-.06,.34Z"/>
          <path class="cls-6" d="M680.5,83.53c-.06,.1-.16,.17-.28,.2-.24,.05-.48-.1-.53-.33l-.65-2.85c-.05-.24,.1-.48,.33-.53s.48,.1,.53,.33l.65,2.85c.03,.12,0,.24-.06,.34Z"/>
        </g>
      </g>
    </g>
    <g>
      <path class="cls-7" d="M891.63,307.76l.61-15.83h0l.14-3.5-14.33-.56-.27,7,12.77,.5-.34,8.86c-.8-.77-1.87-1.27-3.06-1.32-2.58-.1-4.75,1.91-4.85,4.48-.1,2.58,1.91,4.75,4.48,4.85,2.58,.1,4.75-1.91,4.85-4.48Z"/>
      <path class="cls-7" d="M876.21,304.02c-.82-.97-2.02-1.61-3.38-1.66-2.58-.1-4.75,1.91-4.85,4.48-.1,2.58,1.91,4.75,4.48,4.85,2.58,.1,4.75-1.91,4.85-4.48l.63-16.21,.12-3.11-1.22-.05-.63,16.18Z"/>
    </g>
    <g>
      <path class="cls-7" d="M933.81,301.3l.61-15.83h0l.14-3.5-14.33-.56-.27,7,12.77,.5-.34,8.86c-.8-.77-1.87-1.27-3.06-1.32-2.58-.1-4.75,1.91-4.85,4.48-.1,2.58,1.91,4.75,4.48,4.85,2.58,.1,4.75-1.91,4.85-4.48Z"/>
      <path class="cls-7" d="M918.38,297.56c-.82-.97-2.02-1.61-3.38-1.66-2.58-.1-4.75,1.91-4.85,4.48-.1,2.58,1.91,4.75,4.48,4.85,2.58,.1,4.75-1.91,4.85-4.48l.63-16.21,.12-3.11-1.22-.05-.63,16.18Z"/>
    </g>
    <g>
      <path class="cls-7" d="M728.97,388.23l.61-15.83h0l.14-3.5-14.33-.56-.27,7,12.77,.5-.34,8.86c-.8-.77-1.87-1.27-3.06-1.32-2.58-.1-4.75,1.91-4.85,4.48-.1,2.58,1.91,4.75,4.48,4.85,2.58,.1,4.75-1.91,4.85-4.48Z"/>
      <path class="cls-7" d="M713.54,384.49c-.82-.97-2.02-1.61-3.38-1.66-2.58-.1-4.75,1.91-4.85,4.48-.1,2.58,1.91,4.75,4.48,4.85,2.58,.1,4.75-1.91,4.85-4.48l.63-16.21,.12-3.11-1.22-.05-.63,16.18Z"/>
    </g>
    <g>
      <path class="cls-7" d="M691.82,381.95l-14.68-14.26h0l-3.24-3.15-12.91,13.29,6.49,6.3,11.51-11.84,8.21,7.98c-1.43,.1-2.83,.7-3.91,1.81-2.32,2.39-2.27,6.21,.12,8.53,2.39,2.32,6.21,2.27,8.53-.12,2.32-2.39,2.27-6.21-.12-8.53Z"/>
      <path class="cls-7" d="M674.9,393.54c-1.64-.05-3.29,.55-4.52,1.82-2.32,2.39-2.27,6.21,.12,8.53,2.39,2.32,6.21,2.27,8.53-.12,2.32-2.39,2.27-6.21-.12-8.53l-15.04-14.61-2.88-2.8-1.1,1.13,15.01,14.58Z"/>
    </g>
    <g>
      <path class="cls-15" d="M803.65,366c-2.26,1.41-5.24,.72-6.65-1.55-1.41-2.26-.72-5.24,1.55-6.65,2.26-1.41,5.24-.72,6.65,1.55s.72,5.24-1.55,6.65Z"/>
      <rect class="cls-15" x="801.98" y="360.19" width="16.38" height="1.61" transform="translate(-68.39 482.77) rotate(-31.91)"/>
      <g>
        <path class="cls-15" d="M795.81,353.42c-2.26,1.41-5.24,.72-6.65-1.55-1.41-2.26-.72-5.24,1.55-6.65,2.26-1.41,5.24-.72,6.65,1.55,1.41,2.26,.72,5.24-1.55,6.65Z"/>
        <rect class="cls-15" x="810.01" y="343.64" width="7.24" height="14.83" transform="translate(-62.61 483.1) rotate(-31.91)"/>
        <polygon class="cls-15" points="810.06 344.54 795.81 353.42 795.14 352.34 812.12 341.77 812.79 342.84 810.06 344.54"/>
      </g>
    </g>
    <g>
      <path class="cls-15" d="M934.9,270.47c-2.26,1.41-5.24,.72-6.65-1.55-1.41-2.26-.72-5.24,1.55-6.65,2.26-1.41,5.24-.72,6.65,1.55,1.41,2.26,.72,5.24-1.55,6.65Z"/>
      <rect class="cls-15" x="933.24" y="264.65" width="16.38" height="1.61" transform="translate(1.94 537.71) rotate(-31.91)"/>
      <g>
        <path class="cls-15" d="M927.06,257.88c-2.26,1.41-5.24,.72-6.65-1.55-1.41-2.26-.72-5.24,1.55-6.65,2.26-1.41,5.24-.72,6.65,1.55,1.41,2.26,.72,5.24-1.55,6.65Z"/>
        <rect class="cls-15" x="941.27" y="248.1" width="7.24" height="14.83" transform="translate(7.72 538.04) rotate(-31.91)"/>
        <polygon class="cls-15" points="941.31 249.01 927.06 257.88 926.39 256.81 943.37 246.23 944.04 247.31 941.31 249.01"/>
      </g>
    </g>
    <g>
      <path class="cls-15" d="M868.2,430.56c-2.26,1.41-5.24,.72-6.65-1.55-1.41-2.26-.72-5.24,1.55-6.65,2.26-1.41,5.24-.72,6.65,1.55s.72,5.24-1.55,6.65Z"/>
      <rect class="cls-15" x="866.53" y="424.74" width="16.38" height="1.61" transform="translate(-92.75 526.64) rotate(-31.91)"/>
      <g>
        <path class="cls-15" d="M860.36,417.97c-2.26,1.41-5.24,.72-6.65-1.55-1.41-2.26-.72-5.24,1.55-6.65,2.26-1.41,5.24-.72,6.65,1.55,1.41,2.26,.72,5.24-1.55,6.65Z"/>
        <rect class="cls-15" x="874.56" y="408.19" width="7.24" height="14.83" transform="translate(-86.97 526.97) rotate(-31.91)"/>
        <polygon class="cls-15" points="874.61 409.09 860.36 417.97 859.69 416.89 876.67 406.32 877.34 407.39 874.61 409.09"/>
      </g>
    </g>
    <g>
      <path class="cls-15" d="M662.5,329.43c-2.26,1.41-5.24,.72-6.65-1.55-1.41-2.26-.72-5.24,1.55-6.65,2.26-1.41,5.24-.72,6.65,1.55,1.41,2.26,.72,5.24-1.55,6.65Z"/>
      <rect class="cls-15" x="660.83" y="323.61" width="16.38" height="1.61" transform="translate(-70.38 402.64) rotate(-31.91)"/>
      <g>
        <path class="cls-15" d="M654.66,316.84c-2.26,1.41-5.24,.72-6.65-1.55s-.72-5.24,1.55-6.65c2.26-1.41,5.24-.72,6.65,1.55,1.41,2.26,.72,5.24-1.55,6.65Z"/>
        <rect class="cls-15" x="668.86" y="307.06" width="7.24" height="14.83" transform="translate(-64.6 402.96) rotate(-31.91)"/>
        <polygon class="cls-15" points="668.91 307.97 654.66 316.84 653.99 315.76 670.97 305.19 671.64 306.26 668.91 307.97"/>
      </g>
    </g>
    <g>
      <path class="cls-15" d="M841.09,263.58c-2.26,1.41-5.24,.72-6.65-1.55-1.41-2.26-.72-5.24,1.55-6.65,2.26-1.41,5.24-.72,6.65,1.55s.72,5.24-1.55,6.65Z"/>
      <rect class="cls-15" x="839.42" y="257.77" width="16.38" height="1.61" transform="translate(-8.59 487.08) rotate(-31.91)"/>
      <g>
        <path class="cls-15" d="M833.25,251c-2.26,1.41-5.24,.72-6.65-1.55s-.72-5.24,1.55-6.65c2.26-1.41,5.24-.72,6.65,1.55,1.41,2.26,.72,5.24-1.55,6.65Z"/>
        <rect class="cls-15" x="847.45" y="241.22" width="7.24" height="14.83" transform="translate(-2.82 487.41) rotate(-31.91)"/>
        <polygon class="cls-15" points="847.5 242.12 833.25 251 832.58 249.92 849.56 239.35 850.23 240.42 847.5 242.12"/>
      </g>
    </g>
    <path class="cls-15" d="M760.85,238l.31,1.16,15.26-4.1-2.97-11.05-15.26,4.1-1.93,.52,6.87,25.57c-1.74-1.12-3.93-1.53-6.09-.95-4.07,1.09-6.48,5.28-5.39,9.35,1.09,4.07,5.28,6.48,9.35,5.39,4.07-1.09,6.48-5.28,5.39-9.35l-5.54-20.63Z"/>
    <g>
      <rect class="cls-13" x="598.29" y="325.17" width="7.52" height="10.39" transform="translate(-60.46 511.16) rotate(-44.02)"/>
      <path class="cls-13" d="M587.72,335.16c.09-1.36-.37-2.75-1.39-3.8-1.92-1.99-5.1-2.05-7.09-.12s-2.05,5.1-.12,7.09c1.92,1.99,5.1,2.05,7.09,.12l12.54-12.11,2.4-2.32-.91-.94-12.51,12.09Z"/>
    </g>
    <path class="cls-6" d="M825.85,471.02l-.25,2.14-.25,2.14-.88,7.41c-.26-.13-.54-.21-.84-.25-1.42-.17-2.7,.84-2.87,2.26-.17,1.42,.84,2.7,2.26,2.87,1.42,.17,2.7-.84,2.87-2.26l1.17-9.83,10.68,1.27-.88,7.41c-.26-.13-.54-.22-.84-.25-1.42-.17-2.7,.84-2.87,2.26s.84,2.7,2.26,2.87c1.42,.17,2.7-.84,2.87-2.26l1.17-9.83,.25-2.14,.25-2.14-14.1-1.68Z"/>
    <path class="cls-6" d="M761.17,426.36l-1.06,1.22-1.06,1.22-3.67,4.23c-.11-.19-.24-.36-.41-.51-.81-.7-2.03-.61-2.73,.2-.7,.81-.61,2.03,.2,2.73,.81,.7,2.03,.61,2.73-.2l4.86-5.61,6.1,5.29-3.67,4.23c-.11-.19-.24-.36-.41-.51-.81-.7-2.03-.61-2.73,.2-.7,.81-.61,2.03,.2,2.73,.81,.7,2.03,.61,2.73-.2l4.86-5.61,1.06-1.22,1.06-1.22-8.06-6.98Z"/>
    <path class="cls-6" d="M696.76,560.41l-.65,2.17-2.93,9.71c-.24-.18-.52-.32-.82-.41-1.44-.43-2.96,.38-3.39,1.82-.43,1.44,.38,2.96,1.82,3.39,1.44,.43,2.96-.38,3.39-1.82l3.54-11.75c2.56,.53,3.12,3.81,3.12,3.81,1.44-4.78-4.08-6.92-4.08-6.92Z"/>
  </g>
  <g id="man">
    <path class="cls-18" d="M665.27,1006.29c-2.73,3.38-5.68,6.67-9.31,9.04-3.89,2.54-8.4,3.93-12.67,5.75-4.28,1.82-8.53,4.26-11.03,8.18h42.23c.98-7.7,1.99-17.13,4.2-24.58l-13.42,1.6Z"/>
    <path class="cls-18" d="M758.85,1005.51v23.44l35.59,.31c-3.4-3.2-7.09-5.82-11.28-7.87-4.19-2.05-8.44-4.2-11.71-7.53-3.27-3.33-5.44-8.09-4.5-12.66l-8.1,4.31Z"/>
    <path class="cls-4" d="M772.94,1008.21h-17.82c-2.05-17.29-4.1-34.63-3.92-52.04,.25-23.25,2.16-47,3.38-70.22,.82-15.52,.3-31.07-.23-46.61-.35-10.45-.46-20.11-.81-30.56-24.09,67.56-46.81,135.78-73.19,202.47-7.78-.12-14.98-2.01-22.51-3.97,22.91-87.59,51.09-175.21,74-262.81l7.12-2.43,49.28,2.18c-3.57,88.42-8.47,175.76-15.3,263.99Z"/>
    <path class="cls-19" d="M733.12,731.5s-.58,8.65-1.27,12.98c18.48,4.36,37.94,4.22,56.39-.25,.3-6.02-.33-12.24-2.11-18l-53.01,5.28Z"/>
    <path class="cls-19" d="M823.4,651.56c2.09,1.16,3.93,2.77,5.36,4.69,.24,.32,.47,.75,.25,1.08-.12,.19-.35,.27-.57,.32-1.67,.36-3.22-.9-4.48-2.06l1.8,5.39c.08,.24,.16,.51,.08,.75-.16,.47-.81,.54-1.27,.39-1.28-.43-1.92-1.82-2.43-3.07,.28,1,.47,2.03,.57,3.07,.03,.3,.05,.62-.06,.9-.19,.48-.71,.74-1.21,.87-2,.53-4.19-.34-5.65-1.81-1.8-1.82-2.63-4.55-2.11-7.05,.52-2.5,2.41-4.68,4.82-5.53l4.9,2.07Z"/>
    <path class="cls-18" d="M802.37,671.11c1.6-4.63,3.21-9.27,4.81-13.9,.51-1.48,1.04-2.99,1.96-4.27,.86-1.19,2.03-2.12,3.2-3,1.45-1.1,2.94-2.15,4.46-3.15,.88-.58,1.88-1.17,2.91-1,.59,.1,1.11,.43,1.61,.76,2.17,1.43,4.35,2.86,6.52,4.28,.23,.15,.48,.32,.59,.58,.29,.69-.57,1.29-1.3,1.47-1.31,.33-2.7,.34-4.02,.04-.9-.21-1.79-.56-2.72-.52-2.34,.11-3.75,2.56-4.73,4.68,.7,1.92,2.71,3.03,4.62,3.76,1.91,.74,4,.84,6.04,.71,1.05-.07,2.11-.2,3.15-.05,1.04,.15,2.09,.64,2.64,1.53,.27,.44,.39,1.07,.03,1.44-.19,.2-.47,.28-.73,.34-1.7,.38-3.48,.24-5.18,.61-4.09,.9-7.35,4.7-11.54,4.63-2.41,6.08-2.04,13.26-3.92,19.52l-8.38-18.49Z"/>
    <path class="cls-10" d="M774.47,703.33c4.7,6.36,12.2,10.56,20.08,11.26,2.35,.21,4.83,.09,6.87-1.09,2.15-1.24,3.51-3.48,4.7-5.67,3.89-7.16,6.67-15.04,8.76-22.91-4.15-5.56-8.41-11.09-12.25-16.88-3.99,6.06-8.16,12.01-12.5,17.83-1.69-1.19-3.19-2.66-4.54-4.22-7.14-8.21-14.71-16.04-22.67-23.45-3.76-3.5-8.09-7.1-13.22-7.13-4.25-.03-8.22,2.53-10.73,5.96l35.5,46.3Z"/>
    <path class="cls-18" d="M779.55,703.33c-1.86-9.02-5.34-17.7-10.21-25.51-5.69-9.12-12.91-19.92-23.11-24.38-1.33-.58-2.77-1.05-4.2-.84-1.43,.21-2.82,1.29-2.95,2.73l40.47,48Z"/>
    <path class="cls-10" d="M715.25,694.14c-2.96-2.16-5.95-4.34-8.46-7.01-2.51-2.67-4.55-5.9-5.26-9.5-.3-1.53-.34-3.19,.39-4.57,1.36-2.56,4.66-3.17,7.48-3.78,3.31-.71,6.54-1.82,9.59-3.28,5.42-2.59,11.15-5.55,16.25-8.73,2.21-1.38,4.58-2.72,7.18-2.87,22.42,18.73,39.34,43.98,47.29,72.09,1.07,3.8-4.41,6.31-8.06,7.8-8.26,3.36-17.38,3.91-26.29,3.76-6.84-.11-13.73-.63-20.32-2.45-1.36-.38-2.75-.83-3.83-1.74-1.88-1.58-2.47-4.18-2.99-6.58-2.62-11.94-3.09-25.95-12.97-33.16Z"/>
    <path class="cls-19" d="M767.32,726.19c-5.53-22.36-16.69-43.14-32.3-60.09l.43-.4c15.67,17.02,26.89,37.88,32.44,60.34l-.57,.14Z"/>
    <path class="cls-18" d="M743.99,702.01c-7.77-12.65-16.68-24.6-26.57-35.67-1.71,.38-3.6,.9-5.06,1.88,7.11,9.5,14,18.76,21.38,28.05l10.24,5.75Z"/>
    <path class="cls-4" d="M719.49,626.89c2.21-.12,4.43,.03,6.6,.44,1.27,.24,2.55,.58,3.66,1.27,1.1,.68,2.02,1.75,2.27,3.02,.19,.94,.02,1.98,.5,2.81,.72,1.24,2.45,1.36,3.64,2.17,1.29,.87,1.85,2.54,1.75,4.09-.1,1.55-.76,3.01-1.49,4.37-1.23,2.3-2.77,4.54-4.97,5.94-2.2,1.4-4.86,1.85-7.24,2.92-.48,.22-.96,.46-1.33,.84-.52,.52-.78,1.24-1.02,1.94-.9,2.56-1.84,5.22-3.79,7.11-1.94,1.89-5.22,2.71-7.39,1.09-1.96-1.47-2.68-4.58-5.07-5.14-1.33-.31-2.76,.32-4.07-.07-1.79-.53-2.53-2.7-2.51-4.56,.03-2.97,1.25-5.81,2.8-8.34s3.44-4.85,4.98-7.38l12.67-12.52Z"/>
    <path class="cls-18" d="M712.32,649.96c2.66,5.1,4.85,10.44,6.53,15.94,5.21,1.08,10.95,1.88,16.27,2.16,.72,.04,1.65-.06,1.86-.76,.06-.21,.04-.43,.02-.64-.39-3.01-2.12-5.66-3.8-8.18l-7.18-10.8-13.69,2.27Z"/>
    <path class="cls-19" d="M722.47,653.7c2.35,.33,4.75,0,6.98-.83-1.15-1.73-2.3-3.46-3.45-5.19l-11.11,1.84c1.86,2.27,4.66,3.76,7.58,4.17Z"/>
    <path class="cls-18" d="M712.57,651.83c2.79,.9,5.73,1.51,8.66,1.24,2.92-.27,5.84-1.52,7.68-3.8,1.88-2.33,2.47-5.55,1.96-8.51-.5-2.96-2-5.67-3.88-8.01-1.88-2.34-4.13-4.34-6.38-6.33-4.59,2.93-8.61,6.67-11.6,11.21,1.09,.99,1.99,2.34,2.73,3.61,.37,.63,.7,1.31,.79,2.04,.17,1.43-.64,2.85-1.79,3.74,.48,.82,.76,1.79,1.08,2.69-1.11-.66-2.15-1.47-3.38-1.88s-2.74-.3-3.59,.67c-.91,1.03-1.08,2.83-.5,4.06,.72,1.51,2.64,2.2,4.27,1.84,1.63-.36,3.03-1.18,3.95-2.58Z"/>
    <path class="cls-19" d="M705.88,651.01l.18,.25c.48-.34,1.05-.56,1.63-.64-.35,.43-.58,.96-.65,1.51l.3,.04c.08-.6,.36-1.17,.79-1.59,.66-.03,1.33,.11,1.91,.41l.14-.27c-1.34-.69-3.07-.58-4.3,.29Z"/>
    <path class="cls-19" d="M720.41,640.53c-.05,0-.11,0-.16,0-.54-.04-1.07-.24-1.5-.58l.19-.24c.38,.29,.86,.48,1.34,.51,.46,.03,.85-.1,1.03-.37,.07-.1,.11-.23,.14-.38,.08-.54-.2-1.12-.67-1.39l.15-.26c.59,.33,.92,1.03,.82,1.7-.03,.2-.09,.36-.19,.5-.22,.32-.64,.5-1.14,.5Z"/>
    <path class="cls-19" d="M725.06,634.91c-.09,0-.19-.01-.29-.03-.32-.07-.61-.23-.86-.37l.15-.27c.25,.14,.5,.28,.78,.34,.28,.06,.55,0,.72-.14,.26-.23,.27-.66,.14-.95-.16-.36-.5-.62-.77-.81l.17-.25c.31,.21,.69,.51,.88,.94,.18,.4,.16,.98-.22,1.3-.18,.15-.43,.23-.69,.23Z"/>
    <path class="cls-19" d="M716.59,635.26l-.6-.1c.13-.78,.44-1.54,.88-2.19l.5,.34c-.4,.58-.67,1.26-.79,1.95Z"/>
    <path class="cls-19" d="M720.98,629.08l-.42-.44c.45-.43,.99-.79,1.57-1.02l.23,.56c-.51,.2-.98,.51-1.38,.89Z"/>
    <path class="cls-19" d="M725.87,638.09l-.18-.24,1-.75-3.67-1.17,.09-.29,3.95,1.26c.05,.02,.09,.06,.1,.12,0,.06-.01,.11-.06,.15l-1.23,.93Z"/>
    <path class="cls-18" d="M790.01,721.92c5.75,1.09,11.55,1.93,17.37,2.52,4.6-4.58,9.05-8.71,13.64-13.28,.81-.8,1.64-1.62,2.67-2.1,.86-.4,1.82-.54,2.77-.67,3.05-.39,6.12-.64,9.19-.74,2.1-.07,3.55,1.91,5.19,3.23,1.38,1.11,2.72,2.28,4.02,3.49,.37,.34,.76,.77,.68,1.27-.1,.61-.83,.87-1.44,.91-3.61,.24-6.6-2.72-10.1-3.62-.86-.22-1.8-.31-2.63,.01,1.8,1.05,3.66,2.17,5.47,3.22,.78,.46,1.57,.92,2.21,1.57,.59,.61,1.02,1.35,1.43,2.1,.81,1.46,1.57,2.95,2.28,4.47,.21,.45,.43,.97,.24,1.44-.27,.68-1.21,.78-1.91,.57-2.19-.68-3.23-3.13-4.86-4.74-1.29-1.28-3.03-2.07-4.83-2.29,.73,1.1,1.24,2.54,1.97,3.64,.38,.57,.77,1.15,1.01,1.8,.79,2.12-.09,4.46-.97,6.55-.15,.34-.33,.72-.68,.85-.48,.17-.97-.21-1.28-.62-.48-.64-.79-1.39-.89-2.18-.07-.54-.05-1.1-.1-1.64-.13-1.4-.76-2.76-1.76-3.75-.18,1.7-.27,3.57-.45,5.27-.19,1.77-.48,3.72-1.84,4.86-.38,.32-.86,.56-1.36,.57-.5,0-1.02-.27-1.21-.73-.09-.22-.1-.46-.12-.7l-.22-4.35c-2.14,3.51-5.7,6.14-9.59,7.49-3.89,1.35-8.04,1.73-12.15,1.9-7.41,.32-14.83,.03-22.24-.26l10.47-16.03Z"/>
    <path class="cls-19" d="M722.57,643.79c1.86-1.28,3.64-2.68,5.32-4.2,.2,.84-.21,1.87-.76,2.53-.55,.66-1.34,1.09-2.16,1.35-.82,.26-1.55,.21-2.4,.31Z"/>
    <path class="cls-19" d="M734.61,665.77l-19.72-1.82s-2.23,8.32,13.06,19.37l9.07-15.26,17.07-.87s-1.93-12.17-15.72-16.94l-3.75,15.51Z"/>
    <path class="cls-10" d="M707.2,669.77c11.16,8.96,24.54,18.77,36.29,26.95,9.14,6.36,18.5,12.52,28.68,17.03,7.32,3.25,14.5,5.79,22.15,8.15-3.26,5.89-6.52,11.79-9.78,17.68-1.3,2.36-2.62,4.73-3.48,7.28-23.72-5.24-44.22-19.34-62.22-35.65-7.1-6.43-14.06-13.3-18.45-21.82-1.87-3.63-3.27-7.76-2.45-11.77s5.05-6.82,9.25-7.86Z"/>
    <path class="cls-14" d="M754.01,704.67c-4.77,0-9.59-.21-14.34-.63l.05-.58c5.13,.45,10.34,.67,15.49,.63v.59c-.4,0-.8,0-1.21,0Z"/>
    <rect class="cls-14" x="734.34" y="705.89" width="15.26" height=".59" transform="translate(-55.74 63.64) rotate(-4.73)"/>
    <path class="cls-19" d="M764.1,787.73c2.13-2.53,4.79-4.64,6.48-7.49-2.15-1.27-4.56-2.09-7.04-2.4,2.09-6.8,2.27-13.22,3.48-20.23-3.56,17.56-7.86,34.14-13.46,51.17,.29,8.6,.41,16.67,.64,25.07,.51-6,1.02-11.99,1.53-17.99,.84-9.91,1.96-20.52,8.37-28.13Z"/>
    <path class="cls-19" d="M694.35,893.01v-.61c4.17,0,8.32-.6,12.34-1.76l.17,.58c-4.07,1.17-8.27,1.77-12.5,1.78Z"/>
    <path class="cls-19" d="M699.44,897.7c-2.82,0-5.65-.76-8.07-2.22l.31-.52c3.2,1.93,7.13,2.59,10.79,1.82l.13,.6c-1.04,.22-2.1,.33-3.16,.33Z"/>
    <rect class="cls-19" x="771.68" y="898.85" width="7.77" height=".61" transform="translate(-359.42 550.18) rotate(-32.13)"/>
    <path class="cls-19" d="M770.41,908.43l-.45-.41c2.44-2.71,4.99-5.39,7.58-7.95l.43,.43c-2.59,2.55-5.13,5.22-7.56,7.92Z"/>
    <polygon class="cls-19" points="719.93 626.7 716.02 623.8 698.11 644.8 701.32 647.74 719.93 626.7"/>
    <path class="cls-10" d="M710.33,619.58s-12.81,7.21-17.39,20.46l5.17,4.75,17.92-20.99-5.69-4.22Z"/>
    <polygon class="cls-10" points="724.6 620.36 694.89 654.08 696.06 655.15 725.77 621.14 724.6 620.36"/>
    <path class="cls-14" d="M787.52,720.02c-22.34-7.62-39.33-19.48-52.97-29.01-2-1.4-3.9-2.72-5.74-3.99-2.48-1.7-4.84-3.61-7.12-5.46-3.2-2.59-6.51-5.27-10.16-7.36l.29-.51c3.69,2.11,7.02,4.81,10.24,7.42,2.27,1.84,4.62,3.74,7.08,5.43,1.85,1.27,3.74,2.59,5.75,3.99,13.62,9.51,30.57,21.35,52.83,28.94l-.19,.56Z"/>
    <path class="cls-14" d="M757.08,738.61c-12.97-6.83-26.39-16.47-39.89-28.67-3.48-3.14-8.56-7.94-12.53-13.35-4.53-6.18-6.9-11.64-7.24-16.7l.59-.04c.33,4.95,2.67,10.31,7.13,16.39,3.94,5.36,8.99,10.14,12.45,13.26,13.47,12.16,26.85,21.78,39.77,28.58l-.27,.52Z"/>
    <path class="cls-14" d="M783.98,697.59l-.54-.24c1.8-4.04,3.97-7.95,6.44-11.62l.49,.33c-2.46,3.64-4.61,7.52-6.4,11.53Z"/>
    <path class="cls-14" d="M784.97,690.12l-.41-.42c1.5-1.47,3.19-2.73,5.02-3.75l.28,.51c-1.79,.99-3.44,2.22-4.9,3.66Z"/>
    <path class="cls-14" d="M784.29,712.13c-7.11-16.26-16.04-30.45-27.3-43.37l.44-.39c11.3,12.96,20.26,27.2,27.39,43.52l-.54,.24Z"/>
    <g>
      <polygon class="cls-19" points="657.85 798.11 662.71 798.11 822.89 1023.78 818.03 1023.78 657.85 798.11"/>
      <rect class="cls-18" x="699.61" y="767.08" width="180.63" height="24.34"/>
      <path class="cls-19" d="M680.2,767.08s-1.47,14.6-12.19,14.6h-10.16v9.74h41.76v-24.34h-19.41Z"/>
      <rect class="cls-19" x="657.85" y="791.42" width="41.76" height="6.69"/>
      <rect class="cls-19" x="699.61" y="791.42" width="180.63" height="6.69"/>
      <rect class="cls-19" x="670.06" y="1023.78" width="61.19" height="5.48"/>
      <rect class="cls-19" x="803.93" y="1023.78" width="61.19" height="5.48"/>
      <polygon class="cls-19" points="851.56 798.11 846.71 798.11 686.52 1023.78 691.38 1023.78 851.56 798.11"/>
      <polygon class="cls-18" points="880.24 798.11 875.38 798.11 715.19 1023.78 720.05 1023.78 880.24 798.11"/>
      <polygon class="cls-18" points="693.89 798.11 698.75 798.11 858.93 1023.78 854.07 1023.78 693.89 798.11"/>
    </g>
  </g>
</svg>